<svg width="40" height="40" viewBox="0 0 40 40" fill="none" xmlns="http://www.w3.org/2000/svg">
<path fill-rule="evenodd" clip-rule="evenodd" d="M28.1064 4.29632C28.2628 4.13996 28.5155 4.13996 28.6718 4.29632L35.8827 11.5068C36.0391 11.6632 36.0391 11.9159 35.8827 12.0723L14.9971 32.9579V33.4458C14.9971 34.8498 13.8554 35.9915 12.4514 35.9915H6.54572C5.1417 35.9915 4 34.8498 4 33.4458V4.39989C4 4.17875 4.17875 4 4.39989 4H14.5972C14.8183 4 14.9971 4.17875 14.9971 4.39989V17.4056L28.1064 4.29632ZM17.3165 16.2176L23.9615 22.8626L29.2945 17.5296L22.6494 10.8846L17.3165 16.2176ZM23.396 23.428L16.751 16.783L14.9971 18.5365V25.4427L18.189 28.6351L23.396 23.428ZM4.79979 20.4848H14.1973V13.042H4.79979V20.4848ZM14.1973 21.2846H4.79979V28.7266H14.1973V21.2846ZM14.1973 12.2422V4.79979H4.79979V12.2422H14.1973ZM12.4514 35.1917C13.4139 35.1917 14.1973 34.4083 14.1973 33.4458V29.5264H4.79979V33.4458C4.79979 34.4083 5.58318 35.1917 6.54572 35.1917H12.4514ZM17.6236 29.2001L14.9971 26.5736V31.827L17.6236 29.2001ZM23.2149 10.3191L29.8599 16.9642L35.0342 11.7899L28.3891 5.1449L23.2149 10.3191ZM7.72557 32.4249C7.72557 31.4473 8.52117 30.6521 9.49877 30.6521C10.4764 30.6521 11.272 31.4477 11.272 32.4249C11.272 33.4029 10.4768 34.1981 9.49877 34.1981C8.52077 34.1981 7.72557 33.4025 7.72557 32.4249ZM8.52557 32.4249C8.52557 32.9617 8.96197 33.3981 9.49877 33.3981C10.0356 33.3981 10.472 32.9617 10.472 32.4249C10.472 31.8885 10.0356 31.4521 9.49877 31.4521C8.96197 31.4521 8.52557 31.8885 8.52557 32.4249Z" fill="black"/>
<path d="M28.6718 4.29632L28.6365 4.33168V4.33168L28.6718 4.29632ZM28.1064 4.29632L28.071 4.26097V4.26097L28.1064 4.29632ZM35.8827 11.5068L35.9181 11.4715V11.4714L35.8827 11.5068ZM35.8827 12.0723L35.8474 12.0369L35.8827 12.0723ZM14.9971 32.9579L14.9617 32.9226L14.9471 32.9372V32.9579H14.9971ZM14.9971 17.4056H14.9471V17.5263L15.0324 17.441L14.9971 17.4056ZM23.9615 22.8626L23.9261 22.8979L23.9615 22.9333L23.9969 22.8979L23.9615 22.8626ZM17.3165 16.2176L17.2811 16.1822L17.2458 16.2176L17.2811 16.2529L17.3165 16.2176ZM29.2945 17.5296L29.3298 17.565L29.3652 17.5296L29.3298 17.4943L29.2945 17.5296ZM22.6494 10.8846L22.6848 10.8492L22.6494 10.8139L22.6141 10.8492L22.6494 10.8846ZM16.751 16.783L16.7864 16.7476L16.751 16.7123L16.7157 16.7476L16.751 16.783ZM23.396 23.428L23.4314 23.4634L23.4668 23.428L23.4314 23.3927L23.396 23.428ZM14.9971 18.5365L14.9617 18.5012L14.9471 18.5158V18.5365H14.9971ZM14.9971 25.4427H14.9471V25.4634L14.9617 25.4781L14.9971 25.4427ZM18.189 28.6351L18.1537 28.6704L18.189 28.7058L18.2244 28.6704L18.189 28.6351ZM14.1973 20.4848V20.5348H14.2473V20.4848H14.1973ZM4.79979 20.4848H4.74979V20.5348H4.79979V20.4848ZM14.1973 13.042H14.2473V12.992H14.1973V13.042ZM4.79979 13.042V12.992H4.74979V13.042H4.79979ZM4.79979 21.2846V21.2346H4.74979V21.2846H4.79979ZM14.1973 21.2846H14.2473V21.2346H14.1973V21.2846ZM4.79979 28.7266H4.74979V28.7766H4.79979V28.7266ZM14.1973 28.7266V28.7766H14.2473V28.7266H14.1973ZM14.1973 4.79979H14.2473V4.74979H14.1973V4.79979ZM14.1973 12.2422V12.2922H14.2473V12.2422H14.1973ZM4.79979 4.79979V4.74979H4.74979V4.79979H4.79979ZM4.79979 12.2422H4.74979V12.2922H4.79979V12.2422ZM14.1973 29.5264H14.2473V29.4764H14.1973V29.5264ZM4.79979 29.5264V29.4764H4.74979V29.5264H4.79979ZM14.9971 26.5736L15.0324 26.5382L14.9471 26.4529V26.5736H14.9971ZM17.6236 29.2001L17.6589 29.2355L17.6943 29.2001L17.6589 29.1648L17.6236 29.2001ZM14.9971 31.827H14.9471V31.9477L15.0324 31.8624L14.9971 31.827ZM29.8599 16.9642L29.8246 16.9995L29.8599 17.0349L29.8953 16.9995L29.8599 16.9642ZM23.2149 10.3191L23.1795 10.2838L23.1442 10.3191L23.1795 10.3545L23.2149 10.3191ZM35.0342 11.7899L35.0695 11.8253L35.1049 11.7899L35.0695 11.7546L35.0342 11.7899ZM28.3891 5.1449L28.4245 5.10954L28.3891 5.07419L28.3538 5.10954L28.3891 5.1449ZM28.7072 4.26097C28.5313 4.08508 28.2469 4.08508 28.071 4.26097L28.1418 4.33168C28.2786 4.19484 28.4997 4.19484 28.6365 4.33168L28.7072 4.26097ZM35.9181 11.4714L28.7072 4.26097L28.6365 4.33168L35.8474 11.5422L35.9181 11.4714ZM35.9181 12.1076C36.094 11.9317 36.094 11.6473 35.9181 11.4715L35.8474 11.5422C35.9842 11.679 35.9842 11.9001 35.8474 12.0369L35.9181 12.1076ZM15.0324 32.9933L35.9181 12.1076L35.8474 12.0369L14.9617 32.9226L15.0324 32.9933ZM15.0471 33.4458V32.9579H14.9471V33.4458H15.0471ZM12.4514 36.0415C13.883 36.0415 15.0471 34.8774 15.0471 33.4458H14.9471C14.9471 34.8222 13.8278 35.9415 12.4514 35.9415V36.0415ZM6.54572 36.0415H12.4514V35.9415H6.54572V36.0415ZM3.95 33.4458C3.95 34.8774 5.11408 36.0415 6.54572 36.0415V35.9415C5.16931 35.9415 4.05 34.8222 4.05 33.4458H3.95ZM3.95 4.39989V33.4458H4.05V4.39989H3.95ZM4.39989 3.95C4.15114 3.95 3.95 4.15114 3.95 4.39989H4.05C4.05 4.20637 4.20637 4.05 4.39989 4.05V3.95ZM14.5972 3.95H4.39989V4.05H14.5972V3.95ZM15.0471 4.39989C15.0471 4.15114 14.8459 3.95 14.5972 3.95V4.05C14.7907 4.05 14.9471 4.20637 14.9471 4.39989H15.0471ZM15.0471 17.4056V4.39989H14.9471V17.4056H15.0471ZM28.071 4.26097L14.9617 17.3703L15.0324 17.441L28.1418 4.33168L28.071 4.26097ZM23.9969 22.8272L17.3518 16.1822L17.2811 16.2529L23.9261 22.8979L23.9969 22.8272ZM29.2591 17.4943L23.9261 22.8272L23.9969 22.8979L29.3298 17.565L29.2591 17.4943ZM22.6141 10.9199L29.2591 17.565L29.3298 17.4943L22.6848 10.8492L22.6141 10.9199ZM17.3518 16.2529L22.6848 10.9199L22.6141 10.8492L17.2811 16.1822L17.3518 16.2529ZM16.7157 16.8184L23.3607 23.4634L23.4314 23.3927L16.7864 16.7476L16.7157 16.8184ZM15.0324 18.5719L16.7864 16.8184L16.7157 16.7476L14.9617 18.5012L15.0324 18.5719ZM15.0471 25.4427V18.5365H14.9471V25.4427H15.0471ZM18.2244 28.5997L15.0324 25.4074L14.9617 25.4781L18.1537 28.6704L18.2244 28.5997ZM23.3607 23.3927L18.1537 28.5997L18.2244 28.6704L23.4314 23.4634L23.3607 23.3927ZM14.1973 20.4348H4.79979V20.5348H14.1973V20.4348ZM14.1473 13.042V20.4848H14.2473V13.042H14.1473ZM4.79979 13.092H14.1973V12.992H4.79979V13.092ZM4.84979 20.4848V13.042H4.74979V20.4848H4.84979ZM4.79979 21.3346H14.1973V21.2346H4.79979V21.3346ZM4.84979 28.7266V21.2846H4.74979V28.7266H4.84979ZM14.1973 28.6766H4.79979V28.7766H14.1973V28.6766ZM14.1473 21.2846V28.7266H14.2473V21.2846H14.1473ZM14.1473 4.79979V12.2422H14.2473V4.79979H14.1473ZM4.79979 4.84979H14.1973V4.74979H4.79979V4.84979ZM4.84979 12.2422V4.79979H4.74979V12.2422H4.84979ZM14.1973 12.1922H4.79979V12.2922H14.1973V12.1922ZM14.1473 33.4458C14.1473 34.3807 13.3863 35.1417 12.4514 35.1417V35.2417C13.4415 35.2417 14.2473 34.4359 14.2473 33.4458H14.1473ZM14.1473 29.5264V33.4458H14.2473V29.5264H14.1473ZM4.79979 29.5764H14.1973V29.4764H4.79979V29.5764ZM4.84979 33.4458V29.5264H4.74979V33.4458H4.84979ZM6.54572 35.1417C5.61079 35.1417 4.84979 34.3807 4.84979 33.4458H4.74979C4.74979 34.4359 5.55556 35.2417 6.54572 35.2417V35.1417ZM12.4514 35.1417H6.54572V35.2417H12.4514V35.1417ZM14.9617 26.609L17.5882 29.2355L17.6589 29.1648L15.0324 26.5382L14.9617 26.609ZM15.0471 31.827V26.5736H14.9471V31.827H15.0471ZM17.5882 29.1648L14.9617 31.7917L15.0324 31.8624L17.6589 29.2355L17.5882 29.1648ZM29.8953 16.9288L23.2503 10.2838L23.1795 10.3545L29.8246 16.9995L29.8953 16.9288ZM34.9988 11.7546L29.8246 16.9288L29.8953 16.9995L35.0695 11.8253L34.9988 11.7546ZM28.3538 5.18025L34.9988 11.8253L35.0695 11.7546L28.4245 5.10954L28.3538 5.18025ZM23.2503 10.3545L28.4245 5.18025L28.3538 5.10954L23.1795 10.2838L23.2503 10.3545ZM9.49877 30.6021C8.49357 30.6021 7.67557 31.4197 7.67557 32.4249H7.77557C7.77557 31.4749 8.54877 30.7021 9.49877 30.7021V30.6021ZM11.322 32.4249C11.322 31.4201 10.504 30.6021 9.49877 30.6021V30.7021C10.4488 30.7021 11.222 31.4753 11.222 32.4249H11.322ZM9.49877 34.2481C10.5044 34.2481 11.322 33.4305 11.322 32.4249H11.222C11.222 33.3753 10.4492 34.1481 9.49877 34.1481V34.2481ZM7.67557 32.4249C7.67557 33.4301 8.49315 34.2481 9.49877 34.2481V34.1481C8.5484 34.1481 7.77557 33.3749 7.77557 32.4249H7.67557ZM9.49877 33.3481C8.98959 33.3481 8.57557 32.9341 8.57557 32.4249H8.47557C8.47557 32.9893 8.93436 33.4481 9.49877 33.4481V33.3481ZM10.422 32.4249C10.422 32.9341 10.008 33.3481 9.49877 33.3481V33.4481C10.0632 33.4481 10.522 32.9893 10.522 32.4249H10.422ZM9.49877 31.5021C10.008 31.5021 10.422 31.9161 10.422 32.4249H10.522C10.522 31.8609 10.0632 31.4021 9.49877 31.4021V31.5021ZM8.57557 32.4249C8.57557 31.9161 8.98957 31.5021 9.49877 31.5021V31.4021C8.93437 31.4021 8.47557 31.8609 8.47557 32.4249H8.57557Z" fill="black"/>
</svg>
