<svg width="40" height="40" viewBox="0 0 40 40" fill="none" xmlns="http://www.w3.org/2000/svg">
<path d="M21.8759 4.45641C21.7743 4.3651 21.7203 4.22566 21.7444 4.08124C21.7604 3.9851 21.8084 3.90221 21.8759 3.84179V2.55172H18.9703V3.84138C19.0377 3.90166 19.0858 3.98455 19.1018 4.08069C19.1259 4.22524 19.0719 4.36469 18.9703 4.45586V5.45724H21.8759V4.45641ZM23.0491 35.4139H20.423C20.1946 35.4139 20.0092 35.2287 20.0092 35.0001C20.0092 34.7717 20.1946 34.5863 20.423 34.5863H23.6062H24.5652C24.8523 34.5863 25.1132 34.4604 25.303 34.2568C25.5003 34.0452 25.6225 33.7503 25.6225 33.4225V33.4185H25.624C25.6239 33.0923 25.5011 32.7977 25.303 32.5851C25.1207 32.3897 24.8742 32.2654 24.6032 32.255C24.591 32.2553 24.5789 32.2554 24.5666 32.2554V32.256C21.8181 32.256 19.0026 32.3161 16.2626 32.2556C15.9828 32.2607 15.7287 32.3857 15.5429 32.5851C15.3457 32.7968 15.2236 33.092 15.2236 33.4201V33.4222C15.2236 34.0651 15.6968 34.5863 16.2803 34.5863H17.2393C17.4484 34.5863 17.6212 34.7414 17.6491 34.9428C17.789 35.5825 18.1437 36.1415 18.6341 36.54C19.1207 36.9354 19.7426 37.1724 20.4215 37.1724C21.1007 37.1724 21.7233 36.9353 22.2105 36.5397C22.5764 36.2426 22.867 35.8563 23.0491 35.4139ZM18.1137 37.18C17.5577 36.7281 17.1366 36.1161 16.9203 35.4139H16.2803C15.2399 35.4139 14.3961 34.5222 14.3961 33.4222V33.4201C14.3961 32.8766 14.6033 32.3822 14.9383 32.0226C14.9989 31.9578 15.0634 31.8974 15.1316 31.8417C15.0633 31.7861 14.9986 31.7255 14.9382 31.6607C14.605 31.3029 14.3981 30.812 14.396 30.2719C14.3956 30.2552 14.3961 30.2386 14.3977 30.2222C14.4074 29.6931 14.6121 29.2141 14.9382 28.8641C15.0367 28.7585 15.1462 28.6644 15.2647 28.5839L14.4735 24.8259C14.3703 24.3368 14.2077 23.8975 13.9801 23.4974C13.753 23.0981 13.4583 22.7341 13.0908 22.3946C12.2088 21.5833 11.4706 20.6603 10.9046 19.6286C10.371 18.656 9.99103 17.5879 9.78814 16.4268H8.276C8.12359 16.4268 8.00014 16.3032 8.00014 16.1508V12.6937C8.00014 12.5414 8.12359 12.4178 8.276 12.4178H9.78717C10.1792 10.192 11.2433 8.22869 12.7654 6.72193C13.8872 5.61131 15.2572 4.74883 16.7895 4.212H12.009V5.7331C12.009 5.88538 11.8854 6.00897 11.7331 6.00897H8.27586C8.12359 6.00897 8 5.88538 8 5.7331V2.27586C8 2.12359 8.12359 2 8.27586 2H11.7331C11.8854 2 12.009 2.12359 12.009 2.27586V3.79821H18.3128C18.348 3.79131 18.3833 3.78455 18.4186 3.77793V2.27586C18.4186 2.12359 18.5422 2 18.6945 2H22.1517C22.304 2 22.4276 2.12359 22.4276 2.27586V3.77848C22.4619 3.78497 22.4963 3.79145 22.5305 3.79821H28.8368V2.27586C28.8368 2.12359 28.9604 2 29.1127 2H32.5699C32.7222 2 32.8458 2.12359 32.8458 2.27586V5.7331C32.8458 5.88538 32.7222 6.00897 32.5699 6.00897H29.1127C28.9604 6.00897 28.8368 5.88538 28.8368 5.7331V4.212H24.0567C25.589 4.74759 26.9582 5.60717 28.0788 6.7149C29.6032 8.22179 30.6674 10.1863 31.0567 12.4178H32.5697C32.7221 12.4178 32.8457 12.5414 32.8457 12.6937V16.1508C32.8457 16.3032 32.7221 16.4268 32.5697 16.4268H31.0579C30.8549 17.587 30.4748 18.655 29.9414 19.6276C29.3752 20.6599 28.6368 21.5834 27.755 22.3946C27.3883 22.7321 27.0996 23.0974 26.8745 23.4985C26.6483 23.9019 26.4851 24.345 26.3706 24.8357L25.4981 28.5306C25.6488 28.6218 25.7865 28.7342 25.9076 28.8641C26.2371 29.2175 26.4425 29.7029 26.4483 30.2385L26.4491 30.2606H26.4499V30.2612C26.4499 30.2741 26.4494 30.2869 26.4481 30.2994C26.4393 30.8299 26.2345 31.3102 25.9076 31.6608C25.8472 31.7257 25.7825 31.7862 25.7142 31.8418C25.7825 31.8975 25.8472 31.9579 25.9076 32.0226C26.2412 32.3807 26.448 32.8743 26.4484 33.4185H26.4499V33.4225C26.4499 33.9658 26.2426 34.4599 25.9076 34.8193C25.5651 35.1866 25.0905 35.4139 24.5652 35.4139H23.9252C23.7088 36.1161 23.2873 36.728 22.731 37.1797C22.0993 37.6927 21.2954 38 20.4215 38C19.5477 38 18.7446 37.6928 18.1137 37.18ZM16.2308 31.4286C16.2473 31.4281 16.2639 31.4279 16.2806 31.4279V31.4284H24.5461C24.5526 31.4281 24.559 31.4279 24.5655 31.4279C24.8524 31.4279 25.1134 31.3019 25.303 31.0983C25.4952 30.8924 25.6163 30.6092 25.6237 30.295C25.6229 30.2839 25.6225 30.2726 25.6225 30.2612V30.2606H25.624C25.624 29.9341 25.5012 29.6392 25.303 29.4266C25.1134 29.2232 24.8527 29.0972 24.5661 29.0972H24.5655V29.0956L16.2804 29.0953V29.097C15.9935 29.097 15.7326 29.2229 15.5428 29.4266C15.351 29.6324 15.2299 29.9152 15.2221 30.2291C15.223 30.2404 15.2234 30.252 15.2234 30.2637C15.2234 30.5916 15.3455 30.8866 15.5428 31.0982C15.7223 31.291 15.9644 31.4148 16.2308 31.4286ZM16.0452 28.2848C16.1223 28.2746 16.2008 28.2694 16.2804 28.2694V28.271H17.6338L17.6593 16.8495C17.6581 16.8171 17.6625 16.784 17.6734 16.7514L19.0661 12.6094L19.0694 12.6L20.1313 9.61159C20.1572 9.53876 20.2132 9.4771 20.2909 9.44676C20.4324 9.39145 20.5921 9.46138 20.6476 9.60303L21.8157 12.5862C21.8228 12.601 21.8284 12.6166 21.8327 12.6327L23.2001 16.7677L23.1993 16.768C23.2077 16.7932 23.2124 16.8201 23.213 16.8481L23.2131 16.8483V16.8497V16.8526V16.8539V16.8552L23.1874 28.2712L24.5655 28.2713V28.2697H24.5661C24.6142 28.2697 24.6619 28.2716 24.7091 28.2753L25.5607 24.6684C25.5634 24.6531 25.567 24.6379 25.5716 24.6232C25.7032 24.0677 25.8919 23.5614 26.1537 23.0945C26.4207 22.6182 26.7625 22.1857 27.1957 21.7868C28.0121 21.0359 28.6949 20.1823 29.2172 19.2299C29.6859 18.3755 30.0261 17.4403 30.2183 16.4268H29.1126C28.9603 16.4268 28.8367 16.3032 28.8367 16.1508V12.6937C28.8367 12.5414 28.9603 12.4178 29.1126 12.4178H30.2174C29.8388 10.4183 28.8716 8.6589 27.5001 7.30331C26.1451 5.96386 24.395 5.01697 22.4276 4.61986V5.7331C22.4276 5.88538 22.304 6.00897 22.1517 6.00897H18.6945C18.5422 6.00897 18.4186 5.88538 18.4186 5.7331V4.61931C16.452 5.01614 14.7022 5.96552 13.3472 7.30703C11.9763 8.66428 11.0081 10.4234 10.6269 12.4178H11.7331C11.8855 12.4178 12.009 12.5414 12.009 12.6937V16.1508C12.009 16.3032 11.8855 16.4268 11.7331 16.4268H10.6276C10.8199 17.441 11.16 18.3764 11.6287 19.2309C12.1509 20.1828 12.8335 21.0357 13.6501 21.7868C14.0799 22.1837 14.4268 22.6138 14.6978 23.0901C14.9683 23.5655 15.1606 24.0837 15.2818 24.6578L16.0452 28.2848ZM18.1833 28.271H19.1928L19.2023 17.1177L18.2084 17.1143L18.1833 28.271ZM19.7425 28.271L21.092 28.2712L21.1 17.1239L19.7519 17.1194L19.7425 28.271ZM21.6415 28.2712H22.6379L22.6629 17.1291L21.6495 17.1258L21.6415 28.2712ZM19.4617 16.5686C19.4669 16.5683 19.4721 16.5681 19.4774 16.5681C19.4832 16.5681 19.489 16.5683 19.4948 16.5687L21.5559 16.5749L22.5567 16.5779L21.3659 12.9775L19.524 12.9732L18.3163 16.5651L19.4617 16.5686ZM11.4571 2.55172H8.55172V5.45724H11.4571V2.55172ZM32.2938 12.9695H30.7277C30.683 12.9767 30.6389 12.9764 30.5964 12.9695H29.3884V15.8749H30.5644C30.6178 15.8615 30.6749 15.8586 30.7327 15.8683C30.7437 15.8701 30.7545 15.8723 30.7651 15.8749H32.2938V12.9695ZM32.2939 2.55172H29.3887V5.45724H32.2939V2.55172ZM11.4572 12.9695H10.3148C10.2513 12.9919 10.1815 12.9989 10.1105 12.987C10.0868 12.9832 10.0637 12.9772 10.0418 12.9695H8.55186V15.8749H10.0921C10.0992 15.8734 10.1065 15.872 10.1138 15.8708C10.1679 15.8618 10.2212 15.8636 10.2716 15.8749H11.4572V12.9695ZM21.1621 12.4273L20.4036 10.4903L19.7168 12.423L21.1621 12.4273Z" fill="black" stroke="black" stroke-width="0.1"/>
</svg>
