<svg width="40" height="40" viewBox="0 0 40 40" fill="none" xmlns="http://www.w3.org/2000/svg">
<path d="M8.10367 7.53029H32.8969C33.0275 7.53029 33.1336 7.6363 33.1336 7.76693V27.9605C33.1336 28.0911 33.0275 28.1971 32.8969 28.1971H8.10367C7.97304 28.1971 7.86703 28.0911 7.86703 27.9605V7.76693C7.86703 7.6363 7.97304 7.53029 8.10367 7.53029ZM32.6603 8.00357H8.34031V27.1283L17.3922 14.8091C17.5078 14.6513 17.7294 14.6172 17.8871 14.7328C17.9205 14.7573 17.9483 14.7864 17.9703 14.8188C19.2253 16.6664 20.4872 18.5098 21.7463 20.3549L24.3425 16.9748C24.4613 16.8194 24.6835 16.7896 24.8389 16.9083C24.8665 16.9293 24.8902 16.9537 24.9097 16.9804L32.6603 27.1649V8.00357ZM8.78164 27.7238H16.1392C16.1483 27.6683 16.1706 27.6143 16.2072 27.5665L21.2922 20.9462L17.6669 15.6312L8.78164 27.7238ZM16.9794 27.7238H32.1955L24.6226 17.7728L22.0166 21.1656C22.0126 21.1714 22.0082 21.1769 22.0039 21.1824L16.9794 27.7238ZM6.7011 5H34.2989C34.7671 5 35.1925 5.19121 35.5006 5.49943C35.8088 5.80754 36 6.2329 36 6.7011V34.2989C36 34.7671 35.8088 35.1926 35.5006 35.5006C35.1925 35.8088 34.7671 36 34.2989 36H6.7011C6.2329 36 5.80754 35.8088 5.49943 35.5006C5.19121 35.1926 5 34.7671 5 34.2989V6.7011C5 6.2329 5.19121 5.80754 5.49943 5.49943C5.80754 5.19121 6.2329 5 6.7011 5ZM34.2989 5.70992H6.7011C6.42884 5.70992 6.18108 5.8215 6.00135 6.00135C5.8215 6.18108 5.70992 6.42896 5.70992 6.7011V34.2989C5.70992 34.5712 5.8215 34.8189 6.00135 34.9987C6.18108 35.1785 6.42884 35.2901 6.7011 35.2901H34.2989C34.5712 35.2901 34.8189 35.1785 34.9987 34.9987C35.1785 34.8189 35.2901 34.5712 35.2901 34.2989V6.7011C35.2901 6.42896 35.1785 6.18108 34.9987 6.00135C34.8189 5.8215 34.5712 5.70992 34.2989 5.70992Z" fill="black" stroke="black" stroke-width="0.1"/>
<path fill-rule="evenodd" clip-rule="evenodd" d="M27.2812 15.0266C28.5386 15.0266 29.5578 14.0073 29.5578 12.75C29.5578 11.4927 28.5386 10.4734 27.2812 10.4734C26.0239 10.4734 25.0047 11.4927 25.0047 12.75C25.0047 14.0073 26.0239 15.0266 27.2812 15.0266ZM27.2812 15.6562C28.8863 15.6562 30.1875 14.3551 30.1875 12.75C30.1875 11.1449 28.8863 9.84375 27.2812 9.84375C25.6762 9.84375 24.375 11.1449 24.375 12.75C24.375 14.3551 25.6762 15.6562 27.2812 15.6562Z" fill="black" stroke="black" stroke-width="0.1"/>
</svg>
