<svg width="40" height="40" viewBox="0 0 40 40" fill="none" xmlns="http://www.w3.org/2000/svg">
<path d="M28.5 34C28.2 34 28 34.2 28 34.5V35H8V9.5H9C9.3 9.5 9.5 9.3 9.5 9C9.5 8.7 9.3 8.5 9 8.5H8C7.45 8.5 7 8.95 7 9.5V35C7 35.55 7.45 36 8 36H28C28.55 36 29 35.55 29 35V34.5C29 34.2 28.8 34 28.5 34Z" fill="black"/>
<path d="M32.35 10.1L27.4 5.15C27.3 5.05 27.2 5 27.05 5H11.5C10.95 5 10.5 5.45 10.5 6V32C10.5 32.55 10.95 33 11.5 33H31.5C32.05 33 32.5 32.55 32.5 32V10.45C32.5 10.3 32.45 10.2 32.35 10.1ZM27.55 6.7L30.8 9.95H27.55V6.7ZM11.5 32V6H26.55V10.45C26.55 10.75 26.75 10.95 27.05 10.95H31.5V32H11.5Z" fill="black"/>
<path d="M26.5 15.4999H21.5H16.5C16.2 15.4999 16 15.6999 16 15.9999V17.9999C16 18.2999 16.2 18.4999 16.5 18.4999C16.8 18.4999 17 18.2999 17 17.9999V16.4999H21V26.9999H19.5C19.2 26.9999 19 27.1999 19 27.4999C19 27.7999 19.2 27.9999 19.5 27.9999H23.5C23.8 27.9999 24 27.7999 24 27.4999C24 27.1999 23.8 26.9999 23.5 26.9999H22V16.4999H26V17.9999C26 18.2999 26.2 18.4999 26.5 18.4999C26.8 18.4999 27 18.2999 27 17.9999V15.9999C27 15.6999 26.8 15.4999 26.5 15.4999Z" fill="black"/>
</svg>
