<svg width="40" height="40" viewBox="0 0 40 40" fill="none" xmlns="http://www.w3.org/2000/svg">
<path d="M19.3591 5.02946L19.3704 5.02473L19.371 5.02449L19.3759 5.02272L19.379 5.02154L19.3811 5.02083L19.3865 5.01893L19.3877 5.01846C19.3929 5.01668 19.398 5.01515 19.4032 5.01361L19.4101 5.01171L19.4114 5.01136C19.4252 5.00781 19.4392 5.00497 19.4531 5.00319L19.4533 5.00308C19.4618 5.00201 19.4702 5.00118 19.4787 5.00059H19.4792L19.4873 5.00024L19.4878 5.00012L19.4959 5H19.4965H19.5045H19.5051L19.5131 5.00012L19.5136 5.00024L19.5218 5.00059H19.5222C19.5306 5.00118 19.5392 5.00201 19.5477 5.00308L19.5478 5.00319C19.5618 5.00497 19.5756 5.00781 19.5896 5.01136L19.5909 5.01171L19.5977 5.01361C19.6029 5.01515 19.6081 5.01668 19.6132 5.01846L19.6144 5.01893L19.6199 5.02083L19.622 5.02154L19.6251 5.02272L19.6299 5.02449L19.6305 5.02473L19.6419 5.02946L34.7625 11.6447C34.9013 11.693 35.0009 11.8249 35.0009 11.9801V29.0189H35C34.9999 29.1553 34.9205 29.2853 34.7874 29.3433L19.6673 35.9585C19.6176 35.985 19.5608 36 19.5005 36C19.4402 36 19.3835 35.985 19.3338 35.9585L4.23842 29.3542C4.09963 29.3059 4 29.174 4 29.0189V11.9801H4.00095V11.979L4.00106 11.9737L4.00118 11.9675V11.9673L4.00154 11.961C4.00331 11.9279 4.00982 11.8945 4.02142 11.862L4.02355 11.8561L4.02366 11.8556L4.02579 11.8501L4.03053 11.8387L4.03526 11.8284L4.03585 11.8271L4.03822 11.8222L4.03869 11.8214L4.04153 11.8158L4.04757 11.8047L4.05076 11.7991L4.05112 11.7986L4.05407 11.7938C4.06413 11.7774 4.07549 11.762 4.0878 11.7478L4.09206 11.7431L4.09288 11.742L4.09643 11.7383L4.0988 11.7357L4.10081 11.7337L4.10484 11.7296L4.10531 11.7291L4.10992 11.7246L4.11111 11.7235L4.11454 11.7202L4.11738 11.7176L4.11939 11.7158L4.12389 11.7119L4.12424 11.7116L4.12436 11.7115C4.1285 11.708 4.13264 11.7046 4.1369 11.7012L4.13714 11.7011L4.13939 11.6994L4.14388 11.696C4.15287 11.6893 4.16222 11.6831 4.17181 11.6772L4.17228 11.6769L4.17962 11.6727L4.1834 11.6705L4.18707 11.6685L4.1892 11.6673L4.19453 11.6646L4.19523 11.6643C4.20127 11.6613 4.2073 11.6583 4.21358 11.6556L19.3591 5.02946ZM19.8554 35.1033L33.983 28.9226L33.9244 28.897C33.7693 28.8269 33.7878 28.6047 33.9553 28.5614C33.9922 28.5531 34.0319 28.556 34.0667 28.5717L34.291 28.6698V12.5218L24.1372 16.964L25.9383 17.752C26.031 17.784 26.0976 17.8721 26.0976 17.9757V25.1312H26.0969C26.0968 25.2222 26.0439 25.3089 25.9552 25.3476L19.8554 28.0162V35.1033ZM19.1455 20.8607L13.3767 18.3368V24.8789C13.3807 24.8768 13.385 24.8747 13.3894 24.8727L14.0398 24.5881C14.0658 24.5764 14.0921 24.5726 14.1205 24.5734C14.3063 24.585 14.3529 24.8362 14.182 24.9134L13.7064 25.1215L19.1455 27.5011V20.8607ZM19.8554 27.5011L25.2946 25.1215L24.8189 24.9134C24.6638 24.8433 24.6822 24.6211 24.8498 24.5778C24.8866 24.5695 24.9263 24.5724 24.9611 24.5881L25.6116 24.8727C25.6159 24.8747 25.6202 24.8768 25.6242 24.8789V18.3368L19.8554 20.8607V27.5011ZM19.1455 28.0162L13.0627 25.355C12.9699 25.3229 12.9033 25.2349 12.9033 25.1312V17.9757H12.904V17.9731V17.9714L12.9041 17.9673V17.9672L12.9046 17.9588L12.9048 17.9558L12.905 17.9545C12.9067 17.9353 12.9109 17.9159 12.9176 17.897L12.919 17.8931L12.9221 17.8853L12.9237 17.8815L12.9238 17.8814L12.9254 17.8775L12.9263 17.8759L12.9272 17.8737L12.9289 17.8705L12.9291 17.8699L12.9311 17.8662L12.933 17.8624L12.9344 17.8598L12.9351 17.8588L12.9371 17.8551L12.9375 17.8546L12.9394 17.8515L12.9416 17.848L12.9438 17.8447L12.9439 17.8444L12.9463 17.8409L12.9512 17.834L12.9538 17.8307L12.9541 17.8304L12.9564 17.8274L12.9592 17.8241L12.9615 17.8214L12.9619 17.8209L12.9647 17.8177L12.9653 17.817L12.9676 17.8145L12.9692 17.8129L12.9705 17.8114L12.9732 17.8087L12.9736 17.8084L12.9767 17.8054L12.9774 17.8047L12.9797 17.8024L12.9816 17.8008L12.9829 17.7996L12.9859 17.797L12.9861 17.7968L12.9894 17.7939L12.9903 17.7933L12.9907 17.793L12.9948 17.7898L12.9963 17.7886L12.9993 17.7862L13.0033 17.7834L13.0039 17.7829L13.0086 17.7797L13.0105 17.7784L13.0133 17.7766L13.0142 17.7761L13.018 17.7738L13.0182 17.7737L13.0217 17.7716L13.0231 17.7707L13.0257 17.7693L13.028 17.768L13.0296 17.7672L13.0331 17.7654C13.0364 17.7636 13.0399 17.7621 13.0433 17.7606L13.0458 17.7594L14.8637 16.964L4.70995 12.5218V28.6698L4.93429 28.5717C4.96032 28.56 4.98659 28.5562 5.01499 28.5571C5.20064 28.5686 5.24737 28.8198 5.07651 28.897L5.01794 28.9226L19.1455 35.1033V28.0162ZM15.7469 16.5777L19.336 15.0074C19.3277 14.9869 19.323 14.964 19.323 14.9385V14.2286C19.323 14.2053 19.3274 14.1834 19.3361 14.1615C19.415 13.9794 19.678 14.0386 19.678 14.2286V14.9385C19.678 14.962 19.6736 14.9838 19.6648 15.0056L19.6642 15.0072L23.2541 16.5777L33.7628 11.9801L19.5005 5.74035L5.23814 11.9801L15.7469 16.5777ZM16.3355 16.8353L19.5005 18.2199L22.6654 16.8353L19.5005 15.4506L16.3355 16.8353ZM19.8554 18.8373V20.3456L25.2722 17.9757L23.5485 17.2216L19.8554 18.8373ZM19.1455 20.3456V18.8373L15.4525 17.2216L13.7287 17.9757L19.1455 20.3456ZM18.7349 22.9214C18.9058 22.8442 18.859 22.5932 18.6734 22.5816C18.645 22.5806 18.6186 22.5844 18.5926 22.5962L17.9423 22.8808C17.798 22.9459 17.8012 23.1476 17.9477 23.2082C17.9929 23.2249 18.0399 23.2261 18.0845 23.206L18.7349 22.9214ZM16.4585 23.9173C16.6293 23.8402 16.5826 23.5891 16.3969 23.5775C16.3685 23.5767 16.3422 23.5803 16.3161 23.5922L15.6658 23.8767C15.5217 23.9418 15.5248 24.1436 15.6713 24.2043C15.7166 24.2208 15.7634 24.2221 15.808 24.2019L16.4585 23.9173ZM11.9056 25.9093C12.0765 25.8322 12.0298 25.581 11.8441 25.5694C11.8158 25.5685 11.7894 25.5723 11.7634 25.584L11.1129 25.8686C10.9688 25.9337 10.972 26.1354 11.1185 26.1961C11.1637 26.2127 11.2107 26.214 11.2553 26.1938L11.9056 25.9093ZM9.62927 26.9051C9.80014 26.828 9.7534 26.5769 9.56775 26.5653C9.53935 26.5645 9.51296 26.5681 9.48705 26.58L8.83662 26.8645C8.6925 26.9296 8.69558 27.1314 8.84206 27.1919C8.88738 27.2086 8.93424 27.2098 8.97885 27.1897L9.62927 26.9051ZM7.35295 27.9011C7.5237 27.8239 7.47708 27.5728 7.29131 27.5612C7.26303 27.5603 7.23664 27.5641 7.21061 27.5759L6.56018 27.8604C6.41606 27.9254 6.41926 28.1273 6.56574 28.1879C6.61094 28.2044 6.65792 28.2057 6.70253 28.1856L7.35295 27.9011ZM20.4084 22.5962C20.3736 22.5805 20.3338 22.5777 20.2969 22.5859C20.1294 22.6291 20.1109 22.8513 20.266 22.9214L20.9165 23.206C20.9512 23.2217 20.991 23.2245 21.0279 23.2162C21.1955 23.1729 21.2138 22.9507 21.0587 22.8808L20.4084 22.5962ZM22.6848 23.5922C22.65 23.5764 22.6103 23.5736 22.5734 23.5819C22.4058 23.6252 22.3873 23.8473 22.5425 23.9173L23.1929 24.2019C23.2277 24.2176 23.2674 24.2205 23.3042 24.2122C23.4718 24.169 23.4902 23.9468 23.3351 23.8767L22.6848 23.5922ZM27.2376 25.584C27.2028 25.5684 27.163 25.5655 27.1261 25.5739C26.9586 25.617 26.9402 25.8393 27.0953 25.9093L27.7457 26.1938C27.7804 26.2095 27.8202 26.2123 27.8571 26.2041C28.0247 26.1609 28.043 25.9387 27.888 25.8686L27.2376 25.584ZM29.5139 26.58C29.4792 26.5642 29.4395 26.5614 29.4026 26.5697C29.235 26.613 29.2165 26.8351 29.3717 26.9051L30.0221 27.1897C30.0569 27.2054 30.0966 27.2083 30.1334 27.2C30.301 27.1567 30.3194 26.9345 30.1643 26.8645L29.5139 26.58ZM31.7903 27.5759C31.7555 27.5602 31.7158 27.5572 31.6789 27.5656C31.5113 27.6088 31.493 27.831 31.648 27.9011L32.2984 28.1856C32.3332 28.2013 32.373 28.2042 32.4099 28.1958C32.5774 28.1526 32.5958 27.9304 32.4408 27.8604L31.7903 27.5759ZM19.678 6.77439C19.678 6.58436 19.415 6.5252 19.3361 6.7073C19.3274 6.72919 19.323 6.75108 19.323 6.77439V7.48434C19.323 7.67436 19.5859 7.73364 19.6648 7.55143C19.6736 7.52965 19.678 7.50776 19.678 7.48434V6.77439ZM19.678 9.2592C19.678 9.06917 19.415 9.00989 19.3361 9.19211C19.3274 9.21388 19.323 9.23577 19.323 9.2592V9.96914C19.323 10.1592 19.5859 10.2183 19.6648 10.0361C19.6736 10.0143 19.678 9.99245 19.678 9.96914V9.2592ZM19.678 11.7439C19.678 11.5539 19.415 11.4947 19.3361 11.6768C19.3274 11.6986 19.323 11.7205 19.323 11.7439V12.4538C19.323 12.6439 19.5859 12.703 19.6648 12.5209C19.6736 12.4992 19.678 12.4773 19.678 12.4538V11.7439ZM19.678 16.7134C19.678 16.5234 19.415 16.4641 19.3361 16.6463C19.3274 16.6681 19.323 16.69 19.323 16.7134V17.4233C19.323 17.6134 19.5859 17.6725 19.6648 17.4903C19.6736 17.4685 19.678 17.4466 19.678 17.4233V16.7134Z" fill="black" stroke="black" stroke-width="0.15"/>
</svg>
