<svg width="40" height="40" viewBox="0 0 40 40" fill="none" xmlns="http://www.w3.org/2000/svg">
<path d="M31.3348 14.6988V14.6989L25.5863 20.3081L35.8846 29.9395C36.0315 30.077 36.0392 30.3078 35.9017 30.4547L31.2479 35.4309C31.1103 35.5778 30.8796 35.5855 30.7326 35.448L20.1825 25.5811L15.5501 30.1012C15.5166 30.138 15.4752 30.1685 15.4268 30.1898L9.7885 32.6793L9.78056 32.6825L4.52248 35.2044C4.34059 35.2914 4.12268 35.2144 4.03583 35.0327C3.98013 34.9163 3.99161 34.7852 4.05476 34.6831L6.87228 29.6882L9.49876 24.1136C9.52025 24.0681 9.54994 24.029 9.58524 23.9974L13.9427 19.7455L4.1719 10.6073C4.02484 10.4697 4.01714 10.239 4.15468 10.0919L8.80849 5.11588C8.94603 4.96893 9.17677 4.96124 9.32384 5.09878L19.3465 14.4725L25.3669 8.5979L25.3751 8.58971L28.2585 5.77635L28.274 5.75998L28.2747 5.76047L28.2783 5.75705C28.8049 5.24341 29.4937 4.99178 30.1792 5.0002C30.8556 5.00851 31.5292 5.27016 32.0409 5.78307L32.0593 5.80017L32.0587 5.80102L34.2849 8.0823C34.7988 8.60877 35.0504 9.29757 35.042 9.9832C35.0335 10.6691 34.7647 11.352 34.2376 11.8664L31.335 14.6987L31.3348 14.6988ZM31.1274 31.2411C31.2192 31.1432 31.3729 31.138 31.471 31.2298C31.569 31.3214 31.5741 31.4753 31.4824 31.5733L30.2799 32.859C30.1883 32.9571 30.0344 32.9621 29.9365 32.8705C29.8384 32.7788 29.8334 32.625 29.925 32.5269L31.1274 31.2411ZM7.98764 9.59977C8.07937 9.50181 8.23316 9.49668 8.33124 9.58841C8.42921 9.68015 8.43434 9.83394 8.3426 9.9319L7.14016 11.2177C7.04842 11.3157 6.89463 11.3209 6.79655 11.2291C6.69858 11.1374 6.69345 10.9836 6.78519 10.8855L7.98764 9.59977ZM11.2933 12.6915C11.385 12.5934 11.5388 12.5884 11.6369 12.68C11.7348 12.7718 11.74 12.9256 11.6484 13.0236L10.4459 14.3093C10.3542 14.4074 10.2004 14.4125 10.1023 14.3208C10.0043 14.229 9.99921 14.0752 10.0909 13.9772L11.2933 12.6915ZM14.599 15.783C14.6906 15.6851 14.8445 15.6799 14.9425 15.7717C15.0406 15.8634 15.0456 16.0172 14.954 16.1151L13.7515 17.4009C13.6598 17.499 13.506 17.504 13.4079 17.4124C13.31 17.3207 13.3048 17.1669 13.3966 17.0688L14.599 15.783ZM17.9047 18.8748C17.9964 18.7767 18.1502 18.7717 18.2483 18.8633C18.3462 18.955 18.3514 19.1088 18.2597 19.2069L17.0572 20.4925C16.9656 20.5906 16.8116 20.5956 16.7137 20.504C16.6156 20.4123 16.6106 20.2585 16.7022 20.1604L17.9047 18.8748ZM21.2104 21.9664C21.3021 21.8683 21.4559 21.8633 21.554 21.9549C21.652 22.0466 21.6571 22.2004 21.5654 22.2985L20.3629 23.5842C20.2712 23.6821 20.1174 23.6872 20.0193 23.5956C19.9214 23.5039 19.9162 23.3501 20.008 23.252L21.2104 21.9664ZM24.516 25.0579C24.6078 24.9599 24.7616 24.9548 24.8596 25.0465C24.9576 25.1381 24.9627 25.2921 24.8711 25.39L23.6686 26.6758C23.5769 26.7739 23.423 26.7789 23.3251 26.6873C23.227 26.5955 23.222 26.4417 23.3136 26.3436L24.516 25.0579ZM27.8218 28.1496C27.9134 28.0516 28.0673 28.0464 28.1653 28.1382C28.2634 28.2299 28.2684 28.3837 28.1768 28.4818L26.9743 29.7674C26.8826 29.8655 26.7288 29.8705 26.6307 29.7789C26.5327 29.6871 26.5276 29.5334 26.6193 29.4353L27.8218 28.1496ZM9.14611 11.7632C9.21488 11.6898 9.33019 11.6859 9.40372 11.7546C9.47726 11.8234 9.48104 11.9388 9.4124 12.0124L8.74863 12.7219C8.67986 12.7955 8.56443 12.7993 8.49102 12.7306C8.41748 12.6618 8.41357 12.5464 8.48234 12.4729L9.14611 11.7632ZM12.4517 14.8548C12.5205 14.7814 12.6359 14.7775 12.7095 14.8463C12.783 14.915 12.7868 15.0305 12.718 15.104L12.0543 15.8136C11.9855 15.8871 11.8702 15.891 11.7966 15.8222C11.7231 15.7535 11.7193 15.638 11.7881 15.5645L12.4517 14.8548ZM15.7575 17.9464C15.8263 17.873 15.9417 17.8691 16.0151 17.9379C16.0886 18.0066 16.0926 18.1221 16.0238 18.1956L15.36 18.9052C15.2912 18.9787 15.1758 18.9826 15.1024 18.9139C15.0289 18.8451 15.025 18.7297 15.0937 18.6561L15.7575 17.9464ZM19.0631 21.038C19.1319 20.9646 19.2473 20.9607 19.3209 21.0295C19.3944 21.0983 19.3982 21.2137 19.3294 21.2872L18.6656 21.9968C18.5969 22.0703 18.4816 22.0743 18.408 22.0055C18.3345 21.9367 18.3307 21.8213 18.3995 21.7477L19.0631 21.038ZM22.3689 24.1297C22.4376 24.0561 22.5531 24.0524 22.6265 24.1211C22.7 24.1899 22.7039 24.3053 22.6352 24.3789L21.9714 25.0884C21.9026 25.162 21.7872 25.1659 21.7138 25.0971C21.6403 25.0283 21.6363 24.9129 21.7051 24.8394L22.3689 24.1297ZM25.6745 27.2213C25.7433 27.1478 25.8587 27.144 25.9322 27.2127C26.0057 27.2815 26.0096 27.3969 25.9408 27.4704L25.2772 28.1801C25.2084 28.2536 25.093 28.2575 25.0194 28.1887C24.9459 28.12 24.9421 28.0045 25.0109 27.931L25.6745 27.2213ZM28.9803 30.3129C29.049 30.2394 29.1643 30.2356 29.2379 30.3044C29.3114 30.3731 29.3152 30.4886 29.2464 30.562L28.5828 31.2717C28.514 31.3452 28.3986 31.3491 28.325 31.2804C28.2515 31.2116 28.2477 31.0961 28.3165 31.0226L28.9803 30.3129ZM24.8272 20.5964C24.8163 20.5876 24.8059 20.5782 24.796 20.5679L24.791 20.5626L19.1219 15.2607C19.111 15.2518 19.1005 15.2423 19.0906 15.232L19.0855 15.2265L9.092 5.8803L4.9362 10.3238L14.7024 19.4575C14.713 19.4662 14.7232 19.4755 14.733 19.4856L14.7375 19.4904L20.4076 24.7933C20.4183 24.802 20.4285 24.8114 20.4384 24.8215L20.4431 24.8265L30.9645 34.6665L35.1201 30.223L24.8272 20.5964ZM25.052 19.8084L30.5633 14.4306L29.3858 13.224L25.8528 16.5983C25.7554 16.6911 25.6011 16.6872 25.5084 16.5897C25.4156 16.4922 25.4195 16.338 25.5169 16.2452L29.0454 12.8751L27.4313 11.2208L22.9276 15.5225C22.8301 15.6152 22.6758 15.6113 22.5831 15.5138C22.4903 15.4163 22.4942 15.2621 22.5917 15.1693L27.0908 10.8721L25.6237 9.36842L19.8809 14.9722L25.052 19.8084ZM19.6481 25.0813L14.477 20.2452L10.3461 24.276L11.6466 25.6087L15.1226 22.2961C15.22 22.2034 15.3743 22.2071 15.4671 22.3046C15.5599 22.4022 15.5559 22.5564 15.4585 22.6492L11.9871 25.9575L13.602 27.6125L17.2424 24.1381C17.3398 24.0454 17.4941 24.0492 17.5869 24.1467C17.6797 24.2443 17.6757 24.3985 17.5783 24.4912L13.9423 27.9614L15.2857 29.3382L19.6481 25.0813ZM9.02359 32.2361L7.28026 30.4495L5.25196 34.0451L9.02359 32.2361ZM9.93581 24.9018L7.64085 29.7725L9.72412 31.9076L14.6497 29.7328L13.388 28.4399C13.3083 28.4565 13.2219 28.4327 13.1616 28.3693C13.1027 28.3075 13.0828 28.2228 13.1008 28.1455L9.93581 24.9018ZM31.0864 13.9202L33.7281 11.3425C34.1107 10.9692 34.3058 10.473 34.3119 9.97465C34.318 9.47604 34.1349 8.97498 33.761 8.59191L31.5419 6.31784L31.5413 6.31845C31.5341 6.31124 31.5273 6.30404 31.521 6.29659C31.1498 5.92549 30.6613 5.73616 30.1706 5.73018C29.6736 5.72407 29.1742 5.90607 28.7915 6.27729L28.7923 6.27802C28.7846 6.28571 28.7768 6.2928 28.7688 6.29952L26.1466 8.85796L31.0864 13.9202Z" fill="black" stroke="black" stroke-width="0.1"/>
</svg>
