<?xml version="1.0" standalone="no"?>
<!DOCTYPE svg PUBLIC "-//W3C//DTD SVG 1.1//EN" "http://www.w3.org/Graphics/SVG/1.1/DTD/svg11.dtd" >
<svg xmlns="http://www.w3.org/2000/svg">
<metadata>Generated by IcoMoon</metadata>
<defs>
<font id="icomoon" horiz-adv-x="1024">
<font-face units-per-em="1024" ascent="960" descent="-64" />
<missing-glyph horiz-adv-x="1024" />
<glyph unicode="&#x20;" horiz-adv-x="512" d="" />
<glyph unicode="&#xe900;" glyph-name="shape" d="M821.726 824.888h-619.456c-48.804 0-88.494-38.272-88.494-85.333v-597.334c0-47.061 39.689-85.333 88.494-85.333h619.456c48.806 0 88.495 38.272 88.495 85.333v597.334c0 47.061-39.689 85.333-88.495 85.333zM202.27 142.221v597.334h622.575l0.043-597.334h-622.618z" />
<glyph unicode="&#xe901;" glyph-name="upload" d="M465.685 696.131v-287.883c0-12.211 4.851-23.919 13.487-32.555 8.631-8.636 20.343-13.487 32.555-13.487s23.923 4.851 32.559 13.487c8.636 8.636 13.487 20.343 13.487 32.555v287.887l105.57-105.573c8.661-8.519 20.335-13.271 32.482-13.222 12.143 0.049 23.778 4.896 32.367 13.486s13.436 20.224 13.487 32.37c0.051 12.146-4.702 23.82-13.222 32.479l-184.171 184.172c-0.043 0.044-0.085 0.081-0.132 0.12-0.030 0.026-0.060 0.052-0.090 0.080-1.007 0.998-2.057 1.948-3.153 2.851-0.341 0.282-0.695 0.539-1.050 0.796-0.201 0.145-0.401 0.29-0.597 0.439-0.171 0.125-0.337 0.251-0.503 0.378-0.482 0.365-0.96 0.73-1.468 1.069-0.457 0.305-0.926 0.581-1.395 0.856-0.196 0.116-0.393 0.231-0.589 0.349-0.171 0.104-0.346 0.209-0.516 0.314-0.452 0.275-0.905 0.549-1.37 0.799-0.486 0.261-0.981 0.489-1.476 0.719-0.183 0.084-0.367 0.169-0.55 0.255-0.158 0.076-0.316 0.153-0.474 0.23-0.525 0.253-1.050 0.506-1.587 0.73-0.461 0.191-0.93 0.354-1.399 0.518-0.188 0.067-0.38 0.134-0.572 0.203-0.149 0.054-0.294 0.108-0.444 0.163-0.61 0.224-1.216 0.447-1.843 0.636-0.431 0.13-0.866 0.237-1.301 0.343-0.222 0.053-0.439 0.107-0.657 0.163-0.201 0.051-0.405 0.104-0.61 0.157-0.597 0.155-1.19 0.31-1.801 0.431-0.533 0.106-1.067 0.18-1.604 0.253-0.201 0.028-0.401 0.055-0.602 0.084-0.222 0.032-0.435 0.067-0.653 0.102-0.529 0.084-1.058 0.169-1.596 0.22-1.276 0.118-2.556 0.183-3.84 0.196-0.115 0-0.226 0.009-0.337 0.017-0.115 0.009-0.23 0.017-0.35 0.017-0.124 0-0.247-0.009-0.367-0.017-0.107-0.008-0.213-0.015-0.32-0.017-1.276-0.019-2.556-0.069-3.836-0.192-0.525-0.053-1.037-0.135-1.549-0.217-0.235-0.037-0.465-0.074-0.7-0.109-0.201-0.029-0.401-0.057-0.602-0.084-0.538-0.073-1.075-0.147-1.604-0.253-0.627-0.124-1.246-0.285-1.856-0.445-0.188-0.048-0.371-0.096-0.555-0.143-0.213-0.055-0.427-0.107-0.644-0.159-0.439-0.107-0.883-0.213-1.314-0.347-0.619-0.185-1.216-0.404-1.813-0.624-0.162-0.058-0.32-0.116-0.478-0.174-0.196-0.070-0.388-0.139-0.585-0.208-0.461-0.162-0.926-0.325-1.382-0.513-0.521-0.216-1.024-0.459-1.532-0.703-0.179-0.086-0.358-0.172-0.538-0.257-0.166-0.078-0.333-0.154-0.495-0.231-0.512-0.237-1.024-0.474-1.523-0.743-0.469-0.25-0.917-0.524-1.37-0.799-0.171-0.105-0.346-0.209-0.521-0.314-0.196-0.118-0.393-0.233-0.589-0.349-0.469-0.275-0.934-0.55-1.395-0.856-0.503-0.34-0.986-0.704-1.468-1.069-0.166-0.126-0.333-0.253-0.499-0.378-0.196-0.149-0.397-0.294-0.597-0.439-0.354-0.257-0.708-0.514-1.054-0.796-1.097-0.903-2.146-1.853-3.153-2.851-0.030-0.028-0.060-0.054-0.090-0.080-0.043-0.038-0.085-0.076-0.128-0.12l-184.173-184.172c-8.519-8.659-13.271-20.332-13.221-32.479s4.896-23.781 13.485-32.37c8.589-8.589 20.224-13.436 32.37-13.486s23.82 4.703 32.479 13.222l105.573 105.569zM189.698 293.039h153.478c23.733 0 42.973 19.238 42.973 42.974s-19.24 42.974-42.973 42.974h-153.478c-57.639 0-104.364-46.724-104.364-104.367v-184.171c0-57.638 46.726-104.363 104.364-104.363h644.606c57.638 0 104.363 46.724 104.363 104.363v184.171c0 57.643-46.724 104.367-104.363 104.367h-184.175c-23.731 0-42.974-19.238-42.974-42.974s19.243-42.974 42.974-42.974h184.175c10.172 0 18.415-8.247 18.415-18.419v-184.171c0-10.172-8.243-18.419-18.415-18.419h-644.606c-10.171 0-18.417 8.247-18.417 18.419v184.171c0 10.172 8.246 18.419 18.417 18.419zM166.676 274.62v-184.171c0-12.715 10.307-23.023 23.022-23.023h-0.004c-12.715 0-23.022 10.308-23.022 23.023v184.175c0 12.71 10.307 23.019 23.022 23.019h153.477c0.002 0 0.003 0 0.005 0 0 0 0 0 0 0h-153.478c-12.714 0-23.022-10.308-23.022-23.023zM381.54 336.013c0 19.034-13.857 34.829-32.033 37.85 18.178-3.021 32.038-18.816 32.038-37.85 0-20.86-16.649-37.833-37.384-38.357 20.733 0.525 37.379 17.498 37.379 38.357zM934.063 90.449v184.171c0 54.182-43.196 98.278-97.028 99.725 53.833-1.451 97.024-45.542 97.024-99.721v-184.175c0-47.616-33.361-87.441-77.982-97.378 44.625 9.937 77.986 49.762 77.986 97.378zM834.3 297.643v0z" />
<glyph unicode="&#xe902;" glyph-name="note" d="M85.333 668.446c0 33.948 13.486 66.505 37.49 90.51s56.562 37.49 90.51 37.49h597.333c33.946 0 66.505-13.486 90.509-37.49s37.491-56.562 37.491-90.51v-469.333c0-33.95-13.487-66.505-37.491-90.509s-56.563-37.491-90.509-37.491h-92.672c-11.315-0.004-21.107 0-30.165 0h-85.333c-33.609 0-56.555 0-90.496 0s-56.887 0-90.496 0h-85.333c-9.059 0-18.851-0.004-30.165 0h-92.672c-33.948 0-66.505 13.487-90.51 37.491s-37.49 56.559-37.49 90.509v469.333zM213.333 711.112c-11.316 0-22.168-4.495-30.17-12.497s-12.497-18.854-12.497-30.17v-469.333c0-11.315 4.495-22.17 12.497-30.17 8.002-8.004 18.854-12.497 30.17-12.497h92.672c33.93-0.017 49.55 0 90.453 0h85.333c1.762 0 1.762 0 13.85 0 6.857 0 10.731 0 16.337 0s14.242 0 16.337 0c5.171 0 12.13 0 13.85 0h85.333c26.722 0 56.55-0.009 90.496 0h92.672c11.315 0 22.17 4.493 30.17 12.497 8 8 12.497 18.854 12.497 30.17v469.333c0 11.316-4.497 22.168-12.497 30.17s-18.854 12.497-30.17 12.497h-597.333zM256 526.223c0 11.316 4.495 22.168 12.497 30.17s18.854 12.497 30.17 12.497h426.667c11.315 0 22.17-4.495 30.17-12.497s12.497-18.854 12.497-30.17c0-11.316-4.497-22.167-12.497-30.172-8-8-18.854-12.493-30.17-12.493h-426.667c-11.316 0-22.168 4.493-30.17 12.493-8.001 8.004-12.497 18.856-12.497 30.172zM256 327.113c0 11.315 4.495 22.17 12.497 30.17s18.854 12.497 30.17 12.497h213.333c11.315 0 22.17-4.497 30.17-12.497s12.497-18.854 12.497-30.17c0-11.315-4.497-22.17-12.497-30.17-8-8.004-18.854-12.497-30.17-12.497h-213.333c-11.316 0-22.168 4.493-30.17 12.497-8.001 8-12.497 18.854-12.497 30.17z" />
<glyph unicode="&#xe903;" glyph-name="comment" d="M85.333 682.667c0 33.948 13.486 66.505 37.49 90.51s56.562 37.49 90.51 37.49h597.333c33.946 0 66.505-13.486 90.509-37.49s37.491-56.562 37.491-90.51v-384c0-33.946-13.487-66.505-37.491-90.509s-56.563-37.491-90.509-37.491h-92.672c-11.315-0.004-22.165-4.501-30.165-12.501l-85.333-85.333c-24.004-23.996-56.555-37.478-90.496-37.478s-66.492 13.483-90.496 37.478l-85.333 85.333c-8 8-18.851 12.497-30.165 12.501h-92.672c-33.948 0-66.505 13.487-90.51 37.491s-37.49 56.563-37.49 90.509v384zM213.333 725.334c-11.316 0-22.168-4.495-30.17-12.497s-12.497-18.854-12.497-30.17v-384c0-11.315 4.495-22.17 12.497-30.17s18.854-12.497 30.17-12.497h92.672c33.93-0.017 66.465-13.508 90.453-37.504l85.333-85.333c3.964-3.968 8.67-7.113 13.85-9.263 5.18-2.146 10.731-3.251 16.337-3.251s11.157 1.105 16.337 3.251c5.18 2.15 9.886 5.295 13.85 9.263l85.333 85.333c24 24.004 56.55 37.495 90.496 37.504h92.672c11.315 0 22.17 4.497 30.17 12.497s12.497 18.854 12.497 30.17v384c0 11.316-4.497 22.168-12.497 30.17s-18.854 12.497-30.17 12.497h-597.333zM256 597.334c0 11.316 4.495 22.168 12.497 30.17s18.854 12.497 30.17 12.497h426.667c11.315 0 22.17-4.495 30.17-12.497s12.497-18.854 12.497-30.17c0-11.316-4.497-22.168-12.497-30.17s-18.854-12.497-30.17-12.497h-426.667c-11.316 0-22.168 4.495-30.17 12.497s-12.497 18.854-12.497 30.17zM256 426.667c0 11.315 4.495 22.17 12.497 30.17s18.854 12.497 30.17 12.497h213.333c11.315 0 22.17-4.497 30.17-12.497s12.497-18.854 12.497-30.17c0-11.315-4.497-22.17-12.497-30.17s-18.854-12.497-30.17-12.497h-213.333c-11.316 0-22.168 4.497-30.17 12.497s-12.497 18.854-12.497 30.17z" />
<glyph unicode="&#xe904;" glyph-name="board" d="M652.843 836.749c10.624 10.619 25.028 16.585 40.047 16.585s29.423-5.965 40.047-16.585l146.479-146.479c10.62-10.622 16.585-25.027 16.585-40.047s-5.965-29.425-16.585-40.047l-146.479-146.479c-10.624-10.62-25.028-16.585-40.047-16.585s-29.423 5.965-40.047 16.585l-146.479 146.479c-10.62 10.622-16.585 25.027-16.585 40.047s5.965 29.425 16.585 40.047l146.479 146.479zM170.298 835.673c-22.534 0-44.145-8.951-60.079-24.886s-24.886-37.545-24.886-60.079v-198.252c0-22.534 8.951-44.147 24.886-60.079 15.934-15.936 37.545-24.887 60.079-24.887h198.252c22.534 0 44.145 8.951 60.079 24.887 15.932 15.932 24.887 37.545 24.887 60.079v198.252c0 22.534-8.956 44.145-24.887 60.079-15.934 15.934-37.545 24.886-60.079 24.886h-198.252zM170.298 410.85c-22.534 0-44.145-8.956-60.079-24.887-15.934-15.936-24.886-37.547-24.886-60.079v-198.251c0-22.537 8.951-44.147 24.886-60.079 15.934-15.936 37.545-24.887 60.079-24.887h198.252c22.534 0 44.145 8.951 60.079 24.887 15.932 15.932 24.887 37.542 24.887 60.079v198.251c0 22.532-8.956 44.143-24.887 60.079-15.934 15.932-37.545 24.887-60.079 24.887h-198.252zM595.123 410.85c-22.532 0-44.147-8.956-60.079-24.887-15.936-15.936-24.887-37.547-24.887-60.079v-198.251c0-22.537 8.951-44.147 24.887-60.079 15.932-15.936 37.547-24.887 60.079-24.887h198.251c22.537 0 44.147 8.951 60.079 24.887 15.936 15.932 24.887 37.542 24.887 60.079v198.251c0 22.532-8.951 44.143-24.887 60.079-15.932 15.932-37.542 24.887-60.079 24.887h-198.251z" />
<glyph unicode="&#xe905;" glyph-name="column" d="M218.074 42.667c-23.889 0-46.8 9.489-63.692 26.381s-26.382 39.804-26.382 63.693v180.147c0 23.889 9.49 46.801 26.382 63.693s39.803 26.381 63.692 26.381h630.519c23.889 0 46.801-9.489 63.693-26.381s26.381-39.804 26.381-63.693v-180.147c0-23.889-9.489-46.801-26.381-63.693s-39.804-26.381-63.693-26.381h-630.519zM218.074 312.888v-180.147h630.519v180.147h-630.519zM218.074 493.039c-23.889 0-46.8 9.489-63.692 26.38s-26.382 39.802-26.382 63.692v180.148c0 23.889 9.49 46.8 26.382 63.692s39.803 26.382 63.692 26.382h630.519c23.889 0 46.801-9.49 63.693-26.382s26.381-39.803 26.381-63.692v-180.148c0-23.889-9.489-46.8-26.381-63.692s-39.804-26.38-63.693-26.38h-630.519zM218.074 763.26v-180.148h630.519v180.148h-630.519z" />
<glyph unicode="&#xe906;" glyph-name="bell" d="M512 853.334c11.315 0 22.17-4.495 30.17-12.497 8.004-8.002 12.497-18.854 12.497-30.17v-45.013c92.757-10.539 156.373-55.296 196.736-111.36 44.843-62.208 59.264-135.467 59.264-184.96v-153.003l72.832-72.832c5.965-5.969 10.027-13.568 11.674-21.845 1.647-8.273 0.802-16.853-2.428-24.649s-8.695-14.455-15.71-19.145c-7.014-4.689-15.262-7.194-23.701-7.194h-170.667c0-28.16-8.107-69.461-33.664-104.96-27.093-37.589-71.893-65.707-137.003-65.707s-109.908 28.075-137.044 65.707c-21.576 30.775-33.3 67.375-33.621 104.96h-170.667c-8.437 0-16.685 2.505-23.7 7.194s-12.482 11.349-15.711 19.145c-3.229 7.795-4.073 16.375-2.428 24.649 1.646 8.277 5.708 15.876 11.673 21.845l72.832 72.832v153.003c0 116.309 49.408 193.109 113.749 239.445 46.037 33.109 98.176 49.664 142.249 56.021v45.867c0 11.316 4.497 22.168 12.497 30.17 8.004 8.001 18.854 12.497 30.17 12.497zM426.667 170.667c0-14.507 4.693-37.205 17.579-55.040 11.264-15.701 30.464-30.293 67.755-30.293s56.491 14.592 67.755 30.293c12.885 17.835 17.579 40.533 17.579 55.040h-170.667zM376.919 639.488c-42.325-30.464-78.251-81.664-78.251-170.155v-170.667c-0.003-11.315-4.499-22.165-12.501-30.165l-12.501-12.501h476.671l-12.501 12.501c-8 8-12.497 18.85-12.501 30.165v170.667c0 35.84-11.093 90.539-43.136 135.083-30.507 42.325-81.749 78.251-170.197 78.251-35.84 0-90.537-11.093-135.081-43.179z" />
<glyph unicode="&#xe907;" glyph-name="fullscreen" d="M372.148 780.642c0-11.735-4.662-22.99-12.96-31.287s-19.552-12.96-31.287-12.96h-70.176l145.705-145.705c8.060-8.345 12.52-19.522 12.419-31.124s-4.754-22.699-12.958-30.903c-8.204-8.204-19.301-12.857-30.903-12.958s-22.778 4.359-31.123 12.419l-145.705 145.705v-70.176c0-11.735-4.662-22.99-12.96-31.287s-19.552-12.96-31.287-12.96c-11.735 0-22.99 4.662-31.287 12.96s-12.96 19.552-12.96 31.287v176.988c0 11.735 4.662 22.989 12.96 31.287s19.552 12.96 31.287 12.96h176.988c11.735 0 22.989-4.662 31.287-12.96s12.96-19.552 12.96-31.287zM752.051 116.937l-145.702 145.707c-8.060 8.346-12.523 19.52-12.42 31.121s4.753 22.699 12.958 30.903c8.205 8.205 19.302 12.86 30.903 12.958 11.601 0.102 22.775-4.356 31.121-12.416l145.707-145.707v70.174c0 11.738 4.663 22.989 12.958 31.287 8.299 8.299 19.554 12.962 31.287 12.962 11.738 0 22.989-4.663 31.287-12.962s12.962-19.55 12.962-31.287v-176.986c0-11.738-4.663-22.989-12.962-31.287s-19.55-12.962-31.287-12.962h-176.986c-11.738 0-22.989 4.663-31.287 12.962s-12.962 19.55-12.962 31.287c0 11.733 4.663 22.989 12.962 31.287s19.55 12.958 31.287 12.958h70.174zM372.148 72.692c0 11.733-4.662 22.989-12.96 31.287s-19.552 12.958-31.287 12.958h-70.176l145.705 145.707c8.060 8.346 12.52 19.52 12.419 31.121s-4.754 22.699-12.958 30.903c-8.204 8.205-19.301 12.86-30.903 12.958-11.601 0.102-22.778-4.356-31.123-12.416l-145.705-145.707v70.174c0 11.738-4.662 22.989-12.96 31.287s-19.552 12.962-31.287 12.962c-11.735 0-22.99-4.663-31.287-12.962s-12.96-19.55-12.96-31.287v-176.986c0-11.738 4.662-22.989 12.96-31.287s19.552-12.962 31.287-12.962h176.988c11.735 0 22.989 4.663 31.287 12.962s12.96 19.55 12.96 31.287zM752.051 736.395l-145.702-145.705c-8.060-8.345-12.523-19.522-12.42-31.124s4.753-22.699 12.958-30.903c8.205-8.204 19.302-12.857 30.903-12.958s22.775 4.359 31.121 12.419l145.707 145.705v-70.176c0-11.735 4.663-22.99 12.958-31.287 8.299-8.298 19.554-12.96 31.287-12.96 11.738 0 22.989 4.662 31.287 12.96s12.962 19.552 12.962 31.287v176.988c0 11.735-4.663 22.989-12.962 31.287s-19.55 12.96-31.287 12.96h-176.986c-11.738 0-22.989-4.662-31.287-12.96s-12.962-19.552-12.962-31.287c0-11.735 4.663-22.99 12.962-31.287s19.55-12.96 31.287-12.96h70.174z" />
<glyph unicode="&#xe908;" glyph-name="trash" d="M440.892 512c23.565 0 42.667-19.102 42.667-42.667v-213.333c0-23.565-19.102-42.667-42.667-42.667s-42.668 19.102-42.668 42.667v213.333c0 23.565 19.103 42.667 42.668 42.667zM611.558 512c23.565 0 42.667-19.102 42.667-42.667v-213.333c0-23.565-19.102-42.667-42.667-42.667s-42.667 19.102-42.667 42.667v213.333c0 23.565 19.102 42.667 42.667 42.667zM98.264 739.557h827.474c22.852 0 41.374-19.102 41.374-42.667s-18.522-42.667-41.374-42.667h-27.153l-91.989-551.943c-12.574-75.435-77.841-130.722-154.317-130.722h-262.342c-76.476 0-141.743 55.287-154.316 130.722l-91.99 551.943h-45.367c-22.85 0-41.374 19.103-41.374 42.667s18.524 42.667 41.374 42.667zM744.922 654.224h-447.625c-35.154 0-61.894-31.566-56.115-66.241l78.612-471.673c5.715-34.287 35.382-59.418 70.144-59.418h262.342c34.761 0 64.431 25.131 70.144 59.418l78.613 471.673c5.777 34.676-20.962 66.241-56.115 66.241zM670.537 818.264c-6.839 4.333-14.767 6.631-22.861 6.627h-242.881c-8.091 0-16.015-2.3-22.848-6.633s-12.292-10.517-15.743-17.833l-28.695-60.867h377.452l-28.672 60.864c-3.452 7.322-8.917 13.51-15.753 17.842zM647.654 910.224c24.273 0.008 48.051-6.887 68.557-19.881 20.514-12.998 36.902-31.563 47.262-53.527l57.348-121.742c6.225-13.217 5.257-28.7-2.569-41.037s-21.419-19.813-36.028-19.813h-512.001c-14.612 0-28.208 7.478-36.033 19.818s-8.791 27.826-2.56 41.043l57.387 121.728c10.352 21.954 26.735 40.515 47.234 53.513s44.271 19.898 68.543 19.898zM404.795 910.224h242.86z" />
<glyph unicode="&#xe909;" glyph-name="move" d="M410.166 828.808c10.448 16.224 24.914 29.589 42.049 38.851s36.382 14.12 55.945 14.12c19.567 0 38.814-4.858 55.945-14.12 17.135-9.263 31.603-22.628 42.048-38.851 17.566 6.545 36.489 8.809 55.142 6.594s36.48-8.84 51.947-19.307c15.462-10.467 28.105-24.462 36.834-40.78s13.286-34.473 13.278-52.902v-70.535c16.853 3.374 34.266 3.029 50.965-1.009 16.704-4.039 32.282-11.671 45.606-22.343s24.060-24.117 31.433-39.361c7.373-15.244 11.196-31.905 11.191-48.777v-182.026c0-151.356-65.327-250.33-149.773-309.943-82.129-57.975-179.196-76.86-244.617-76.86-154.322 0-255.239 64.073-316.068 146.893-59.066 80.546-78.321 175.748-78.321 239.91v91.012c-0.003 16.87 3.82 33.536 11.192 48.777 7.372 15.246 18.109 28.691 31.433 39.363s28.902 18.304 45.604 22.343c16.703 4.039 34.112 4.384 50.967 1.009v161.548c-0.008 18.429 4.549 36.583 13.279 52.902s21.37 30.313 36.835 40.78c15.465 10.467 33.291 17.092 51.945 19.307s37.576-0.049 55.141-6.594zM484.962 426.62c0-12.066-4.89-23.642-13.589-32.175-8.704-8.538-20.506-13.329-32.811-13.329s-24.108 4.791-32.809 13.329c-8.701 8.533-13.59 20.109-13.59 32.175v295.793c0 6.035-2.444 11.822-6.795 16.089s-10.252 6.664-16.404 6.664c-6.153 0-12.054-2.397-16.404-6.664s-6.795-10.054-6.795-16.089v-386.806c0-12.070-4.888-23.642-13.59-32.179-8.701-8.533-20.503-13.325-32.809-13.325s-24.108 4.791-32.809 13.325c-8.701 8.538-13.59 20.109-13.59 32.179v113.766c0 6.033-2.444 11.823-6.795 16.090s-10.252 6.665-16.404 6.665c-6.153 0-12.054-2.398-16.404-6.665s-6.795-10.057-6.795-16.090v-91.012c0-49.604 15.543-125.005 60.875-186.714 43.615-59.383 116.646-109.077 240.716-109.077 50.577 0 127.458 15.245 190.374 59.657 60.553 42.825 111.219 114.449 111.219 236.134v182.026c0 6.034-2.445 11.822-6.797 16.089s-10.253 6.664-16.405 6.664c-6.153 0-12.053-2.397-16.401-6.664-4.352-4.267-6.797-10.055-6.797-16.089v-113.768c0-12.066-4.89-23.642-13.589-32.175-8.704-8.538-20.506-13.329-32.811-13.329s-24.107 4.791-32.806 13.329c-8.704 8.533-13.589 20.109-13.589 32.175v295.793c0 6.035-2.445 11.822-6.797 16.089s-10.253 6.664-16.405 6.664c-6.153 0-12.053-2.397-16.405-6.664-4.348-4.267-6.793-10.054-6.793-16.089v-250.285c0-12.070-4.89-23.646-13.589-32.179-8.704-8.533-20.506-13.329-32.811-13.329s-24.107 4.796-32.806 13.329c-8.704 8.533-13.594 20.109-13.594 32.179v295.792c0 6.034-2.441 11.822-6.793 16.089s-10.253 6.664-16.405 6.664c-6.153 0-12.053-2.397-16.405-6.664-4.348-4.267-6.793-10.055-6.793-16.089v-341.3z" />
<glyph unicode="&#xe90a;" glyph-name="phone" d="M128 768c0 11.316 4.495 22.168 12.497 30.17s18.854 12.497 30.17 12.497h170.667c9.512 0 18.75-3.179 26.249-9.031s12.826-14.041 15.138-23.268l42.667-170.667c1.92-7.691 1.66-15.765-0.751-23.316s-6.88-14.282-12.902-19.436l-124.8-107.008c50.987-104.064 132.139-201.813 255.616-263.424l107.093 131.115c5.116 6.268 11.908 10.948 19.58 13.5 7.676 2.556 15.919 2.876 23.77 0.922l170.667-42.667c9.233-2.304 17.434-7.629 23.296-15.125 5.858-7.501 9.041-16.742 9.045-26.261v-170.667c0-11.315-4.497-22.17-12.497-30.17s-18.854-12.497-30.17-12.497c-122.88 0-227.328 22.059-315.52 60.032-176.085 75.648-282.539 212.181-342.272 349.568-49.451 113.749-67.541 229.419-67.541 315.733zM625.365 160.982c54.315-17.365 115.797-28.672 185.301-32v93.739l-112.085 28.032-73.216-89.771zM252.672 541.014l83.541 71.552-28.16 112.768h-93.184c3.925-54.613 15.403-118.784 37.76-184.363l0.043 0.043z" />
<glyph unicode="&#xe90b;" glyph-name="question" d="M170.667 426.667c0 90.527 35.962 177.347 99.974 241.359s150.832 99.974 241.359 99.974c90.526 0 177.348-35.962 241.361-99.974 64.009-64.012 99.972-150.832 99.972-241.359 0-90.526-35.964-177.348-99.972-241.361-64.013-64.009-150.835-99.972-241.361-99.972-90.527 0-177.347 35.964-241.359 99.972-64.013 64.013-99.974 150.835-99.974 241.361v0zM512 853.334c-235.648 0-426.667-191.019-426.667-426.667s191.019-426.667 426.667-426.667c235.648 0 426.667 191.019 426.667 426.667s-191.019 426.667-426.667 426.667zM512 597.334c-22.63 0-44.335-8.99-60.339-24.994s-24.994-37.708-24.994-60.34c0-11.315-4.495-22.17-12.497-30.17s-18.854-12.497-30.17-12.497c-11.316 0-22.168 4.497-30.17 12.497s-12.497 18.854-12.497 30.17c0.005 31.332 8.634 62.059 24.944 88.812s39.669 48.5 67.519 62.857c27.849 14.357 59.115 20.771 90.364 18.539 31.253-2.233 61.291-13.026 86.814-31.197 25.527-18.171 45.555-43.017 57.899-71.817 12.339-28.8 16.512-60.441 12.066-91.454-4.45-31.019-17.353-60.207-37.291-84.378-19.942-24.166-46.148-42.381-75.755-52.642-4.407-1.429-8.401-3.904-11.648-7.211-0.666-0.661-1.199-1.446-1.579-2.304v-21.205c0-11.315-4.497-22.17-12.497-30.17s-18.854-12.497-30.17-12.497c-11.315 0-22.17 4.497-30.17 12.497s-12.497 18.854-12.497 30.17v21.333c0 49.152 39.424 79.189 70.613 90.027 19.021 6.647 35.076 19.806 45.333 37.15 10.253 17.344 14.042 37.756 10.697 57.624s-13.611 37.914-28.979 50.944c-15.369 13.030-34.85 20.205-54.997 20.256v0zM554.667 341.035v0zM469.333 213.334c0 11.315 4.497 22.17 12.497 30.17s18.854 12.497 30.17 12.497h0.427c11.315 0 22.17-4.497 30.17-12.497s12.497-18.854 12.497-30.17c0-11.315-4.497-22.17-12.497-30.17s-18.854-12.497-30.17-12.497h-0.427c-11.315 0-22.17 4.497-30.17 12.497s-12.497 18.854-12.497 30.17z" />
<glyph unicode="&#xe90c;" glyph-name="sparks" d="M256 810.667c0 11.316-4.495 22.168-12.497 30.17s-18.854 12.497-30.17 12.497c-11.316 0-22.168-4.495-30.17-12.497s-12.497-18.854-12.497-30.17v-42.667h-42.667c-11.316 0-22.168-4.495-30.17-12.497s-12.497-18.854-12.497-30.17c0-11.316 4.495-22.168 12.497-30.17s18.854-12.497 30.17-12.497h42.667v-42.667c0-11.316 4.495-22.168 12.497-30.17s18.854-12.497 30.17-12.497c11.316 0 22.168 4.495 30.17 12.497s12.497 18.854 12.497 30.17v42.667h42.667c11.316 0 22.168 4.495 30.17 12.497s12.497 18.854 12.497 30.17c0 11.316-4.495 22.168-12.497 30.17s-18.854 12.497-30.17 12.497h-42.667v42.667zM597.333 810.667c0 11.316-4.497 22.168-12.497 30.17s-18.854 12.497-30.17 12.497c-11.315 0-22.17-4.495-30.17-12.497s-12.497-18.854-12.497-30.17c0-61.611-8.491-148.309-49.579-218.411-38.997-66.432-109.995-122.923-249.088-122.923-11.316 0-22.168-4.497-30.17-12.497s-12.497-18.854-12.497-30.17c0-11.315 4.495-22.17 12.497-30.17s18.854-12.497 30.17-12.497c56.661 0 131.499-17.195 191.403-66.987 58.283-48.341 107.264-131.627 107.264-274.347 0-11.315 4.497-22.17 12.497-30.17s18.854-12.497 30.17-12.497c11.315 0 22.17 4.497 30.17 12.497s12.497 18.854 12.497 30.17c0 61.611 8.491 148.309 49.579 218.411 38.997 66.432 109.995 122.923 249.088 122.923 11.315 0 22.17 4.497 30.17 12.497s12.497 18.854 12.497 30.17c0 11.315-4.497 22.17-12.497 30.17s-18.854 12.497-30.17 12.497c-56.661 0-131.499 17.195-191.403 66.987-58.283 48.341-107.264 131.627-107.264 274.347zM535.979 549.078c7.979 13.568 14.933 27.52 21.035 41.6 21.969-46.269 53.717-87.219 93.056-120.021 18.944-15.744 38.869-28.928 59.221-39.851-61.653-29.867-105.643-74.837-135.936-126.549-7.863-13.419-14.891-27.311-21.035-41.6-21.969 46.268-53.717 87.219-93.056 120.021-18.364 15.223-38.202 28.574-59.221 39.851 61.653 29.867 105.643 74.837 135.979 126.549h-0.043z" />
<glyph unicode="&#xe90d;" glyph-name="style" d="M839.113 597.334c0 11.316-4.493 22.168-12.493 30.17-8.004 8.001-18.854 12.497-30.174 12.497-11.315 0-22.165-4.495-30.17-12.497-8-8.002-12.497-18.854-12.497-30.17s4.497-22.168 12.497-30.17c8.004-8.001 18.854-12.497 30.17-12.497 11.319 0 22.17 4.495 30.174 12.497 8 8.002 12.493 18.854 12.493 30.17zM796.446 725.334c33.95 0 66.509-13.486 90.513-37.49s37.487-56.562 37.487-90.51c0-33.948-13.483-66.505-37.487-90.509s-56.563-37.491-90.513-37.491c-33.946 0-66.505 13.487-90.509 37.491s-37.491 56.561-37.491 90.509c0 33.948 13.487 66.505 37.491 90.51s56.563 37.49 90.509 37.49zM554.671 256c0 11.315-4.497 22.17-12.497 30.17s-18.854 12.497-30.17 12.497c-11.315 0-22.17-4.497-30.17-12.497-8.004-8-12.497-18.854-12.497-30.17s4.493-22.17 12.497-30.17c8-8 18.854-12.497 30.17-12.497s22.17 4.497 30.17 12.497c8 8 12.497 18.854 12.497 30.17zM512.004 384c33.946 0 66.505-13.487 90.509-37.491s37.491-56.563 37.491-90.509c0-33.946-13.487-66.505-37.491-90.509s-56.563-37.491-90.509-37.491c-33.95 0-66.505 13.487-90.511 37.491s-37.49 56.563-37.49 90.509 13.486 66.505 37.49 90.509c24.006 24.004 56.561 37.491 90.511 37.491zM270.225 597.334c0 11.316-4.495 22.168-12.497 30.17s-18.854 12.497-30.17 12.497c-11.316 0-22.168-4.495-30.17-12.497s-12.497-18.854-12.497-30.17c0-11.316 4.495-22.168 12.497-30.17s18.854-12.497 30.17-12.497c11.316 0 22.169 4.495 30.17 12.497s12.497 18.854 12.497 30.17zM227.559 725.334c33.948 0 66.505-13.486 90.51-37.49s37.49-56.562 37.49-90.51c0-33.948-13.486-66.505-37.49-90.509s-56.562-37.491-90.51-37.491c-33.948 0-66.505 13.487-90.51 37.491s-37.49 56.561-37.49 90.509c0 33.948 13.486 66.505 37.49 90.51s56.562 37.49 90.51 37.49zM796.446 810.667c11.319 0 22.17-4.495 30.174-12.497 8-8.002 12.493-18.854 12.493-30.17v-85.333c0-11.316-4.493-22.168-12.493-30.17-8.004-8.001-18.854-12.497-30.174-12.497-11.315 0-22.165 4.495-30.17 12.497-8 8.002-12.497 18.854-12.497 30.17v85.333c0 11.316 4.497 22.168 12.497 30.17 8.004 8.001 18.854 12.497 30.17 12.497zM796.446 554.667c11.319 0 22.17-4.495 30.174-12.497 8-8.002 12.493-18.854 12.493-30.17v-426.667c0-11.315-4.493-22.17-12.493-30.17-8.004-8-18.854-12.497-30.174-12.497-11.315 0-22.165 4.497-30.17 12.497-8 8-12.497 18.854-12.497 30.17v426.667c0 11.316 4.497 22.168 12.497 30.17 8.004 8.001 18.854 12.497 30.17 12.497zM512.004 810.667c11.315 0 22.17-4.495 30.17-12.497s12.497-18.854 12.497-30.17v-426.667c0-11.315-4.497-22.17-12.497-30.17s-18.854-12.497-30.17-12.497c-11.315 0-22.17 4.497-30.17 12.497-8.004 8-12.497 18.854-12.497 30.17v426.667c0 11.316 4.493 22.168 12.497 30.17 8 8.001 18.854 12.497 30.17 12.497zM512.004 213.334c11.315 0 22.17-4.497 30.17-12.497s12.497-18.854 12.497-30.17v-85.333c0-11.315-4.497-22.17-12.497-30.17s-18.854-12.497-30.17-12.497c-11.315 0-22.17 4.497-30.17 12.497-8.004 8-12.497 18.854-12.497 30.17v85.333c0 11.315 4.493 22.17 12.497 30.17 8 8 18.854 12.497 30.17 12.497zM227.559 810.667c11.316 0 22.168-4.495 30.17-12.497s12.497-18.854 12.497-30.17v-85.333c0-11.316-4.495-22.168-12.497-30.17s-18.854-12.497-30.17-12.497c-11.316 0-22.169 4.495-30.17 12.497s-12.497 18.854-12.497 30.17v85.333c0 11.316 4.495 22.168 12.497 30.17s18.854 12.497 30.17 12.497zM227.559 554.667c11.316 0 22.168-4.495 30.17-12.497s12.497-18.854 12.497-30.17v-426.667c0-11.315-4.495-22.17-12.497-30.17s-18.854-12.497-30.17-12.497c-11.316 0-22.169 4.497-30.17 12.497s-12.497 18.854-12.497 30.17v426.667c0 11.316 4.495 22.168 12.497 30.17s18.854 12.497 30.17 12.497z" />
<glyph unicode="&#xe90e;" glyph-name="integration" d="M480.559 852.383c38.11-4.83 73.28-22.967 99.375-51.189 17.493-18.919 30.17-41.562 37.227-66.005h112.333c23.287 0 45.585-9.303 61.99-25.795 16.397-16.485 25.57-38.8 25.57-62.024v-136.201c33.028-3.58 64.35-17.178 89.677-39.202 30.434-26.47 50.065-63.245 55.206-103.275l0.068-0.546 0.047-0.469c2.287-22.426-0.145-45.082-7.147-66.505-6.997-21.423-18.411-41.139-33.506-57.865-15.095-16.721-33.536-30.076-54.127-39.181-15.953-7.053-32.917-11.43-50.219-12.992v-103.313c0-23.228-9.173-45.542-25.57-62.025-16.405-16.495-38.699-25.796-61.99-25.796h-556.597c-23.29 0-45.585 9.301-61.99 25.796-16.398 16.482-25.573 38.797-25.573 62.025v253.982h111.623c4.616 0.034 9.188 1.037 13.411 2.948 4.248 1.924 8.063 4.727 11.192 8.247l0.201 0.226 0.177 0.192c3.183 3.473 5.617 7.599 7.13 12.105 1.416 4.215 1.995 8.674 1.704 13.116-1.449 8.691-5.917 16.555-12.57 22.195-6.884 5.837-15.629 8.892-24.561 8.627l-108.308-0.013v237.923c0 23.224 9.175 45.539 25.573 62.024 16.405 16.492 38.699 25.795 61.99 25.795h135.924c2.416 8.815 5.582 17.43 9.477 25.748 9.363 19.998 22.736 37.855 39.294 52.447s35.946 25.604 56.955 32.337c21.007 6.732 43.181 9.036 65.12 6.765l0.478-0.050 0.414-0.052zM172.896 732.354c-22.534 0-44.105-9.001-59.98-24.96-15.868-15.953-24.748-37.548-24.748-60.026v-235.089h0.013v235.080c0 22.478 8.88 44.073 24.748 60.026 15.875 15.959 37.446 24.96 59.98 24.96h138.102c2.435 9.387 5.734 18.554 9.866 27.38 9.198 19.647 22.336 37.189 38.601 51.523s35.311 25.151 55.946 31.764c20.637 6.613 42.415 8.876 63.965 6.645l0.414-0.043 0.414-0.052c26.982-3.42 52.467-13.63 74.202-29.447-21.734 15.822-47.223 26.036-74.214 29.457l-0.414 0.052-0.414 0.043c-21.551 2.231-43.328-0.032-63.965-6.645-20.636-6.612-39.68-17.429-55.946-31.764s-29.403-31.876-38.601-51.523c-4.132-8.826-7.43-17.994-9.866-27.38h-138.102zM217.63 404.877c0.823-0.593 1.625-1.22 2.405-1.882 7.202-6.106 12.022-14.626 13.555-24.034 0.337-4.855-0.287-9.732-1.836-14.345-1.639-4.881-4.276-9.348-7.727-13.116l-0.177-0.192-0.174-0.196c-3.392-3.81-7.531-6.857-12.141-8.943-4.586-2.078-9.544-3.166-14.559-3.204h-108.81v-251.145c0-22.481 8.88-44.075 24.748-60.028 2.543-2.556 5.231-4.932 8.047-7.125-2.811 2.189-5.495 4.565-8.034 7.117-15.868 15.953-24.748 37.547-24.748 60.028v251.145h108.81c5.015 0.038 9.973 1.126 14.559 3.204 4.61 2.086 8.749 5.129 12.141 8.943l0.174 0.196 0.177 0.192c3.451 3.767 6.087 8.235 7.727 13.116 1.549 4.612 2.173 9.489 1.836 14.345-1.533 9.408-6.353 17.929-13.555 24.030-0.784 0.666-1.591 1.297-2.418 1.894zM889.882 481.387c-22.498 15.33-48.533 24.704-75.648 27.204v0.009c27.119-2.505 53.15-11.878 75.648-27.213zM777.003 717.736c-13.909 9.449-30.434 14.618-47.509 14.618h-114.47c0-0.003 0.004-0.006 0.004-0.009h114.479c17.071 0 33.587-5.165 47.497-14.609zM741.577 436.608h-0.013v210.761c0 3.331-1.318 6.488-3.605 8.785-0.439 0.446-0.913 0.852-1.408 1.217 0.499-0.368 0.977-0.777 1.421-1.226 2.287-2.298 3.605-5.454 3.605-8.785v-210.752zM549.824 659.697h-0.009l-1.801 34.433c-1.088 20.83-9.425 40.582-23.505 55.811-3.878 4.192-8.124 7.968-12.663 11.293 4.548-3.327 8.794-7.106 12.676-11.302 14.080-15.229 22.417-34.981 23.505-55.811l1.796-34.423zM160.838 484.937h31.183c23.978 0.576 47.4-6.583 66.894-20.262-19.491 13.67-42.909 20.826-66.881 20.254l-31.195 0.009zM165.973 77.722c2.029-1.451 4.448-2.231 6.923-2.231h556.597c3.14 0 6.187 1.254 8.465 3.546 2.287 2.295 3.605 5.453 3.605 8.785v178.159h60.719c11.857-0.060 23.599 2.385 34.462 7.189 10.867 4.804 20.621 11.861 28.617 20.723 8 8.862 14.063 19.328 17.788 30.724 3.674 11.247 4.983 23.142 3.849 34.927-2.884 21.555-13.5 41.276-29.811 55.458-1.084 0.947-2.193 1.86-3.315 2.748 1.126-0.887 2.24-1.809 3.328-2.756 16.311-14.182 26.927-33.903 29.811-55.458 1.135-11.785-0.175-23.68-3.849-34.927-3.725-11.396-9.788-21.867-17.788-30.724-7.996-8.862-17.749-15.919-28.617-20.723-10.863-4.804-22.605-7.249-34.462-7.189h-60.719v-178.159c0-3.332-1.318-6.49-3.605-8.789-2.278-2.287-5.325-3.541-8.465-3.541h-556.597c-2.48 0-4.904 0.781-6.935 2.24zM880.452 325.496c3.55 10.859 4.821 22.345 3.729 33.724-2.803 20.855-13.082 39.927-28.851 53.645-15.898 13.824-36.262 21.252-57.207 20.915l-0.337-0.009h-59.055v213.598c0 2.584-1.024 5.021-2.782 6.787-1.745 1.757-4.075 2.707-6.455 2.707h-182.37l-1.937 37.119c-1.058 20.17-9.126 39.293-22.758 54.035-13.525 14.626-31.663 24.013-51.268 26.604-11.021 1.079-22.153-0.107-32.713-3.491-10.701-3.43-20.6-9.047-29.071-16.511s-15.332-16.618-20.143-26.895c-4.812-10.277-7.466-21.45-7.791-32.82l-1.088-38.043h-207.458c-2.383 0-4.71-0.95-6.458-2.707-1.756-1.765-2.778-4.202-2.778-6.787v-159.599h28.327c28.088 0.666 55.427-9.020 76.865-27.191 21.593-18.304 35.679-43.93 39.625-71.953l0.136-0.99 0.079-0.862c1.445-15.599-0.385-31.339-5.374-46.191-4.96-14.767-12.935-28.343-23.426-39.859-10.368-11.593-23.040-20.902-37.213-27.324-14.26-6.455-29.724-9.839-45.378-9.924h-33.641v-175.654c0-2.586 1.023-5.022 2.778-6.788 1.748-1.758 4.076-2.705 6.458-2.705h556.597c2.381 0 4.71 0.947 6.455 2.705 1.758 1.766 2.782 4.203 2.782 6.788v180.996h63.569c11.452-0.060 22.801 2.304 33.301 6.946s19.925 11.46 27.657 20.028c7.731 8.567 13.598 18.684 17.195 29.705z" />
<glyph unicode="&#xe90f;" glyph-name="color" d="M838.613 721.873c-42.778 42.478-93.611 75.983-149.513 98.55-55.906 22.566-115.755 33.74-176.034 32.864-113.158 0.283-221.795-44.398-302.010-124.213s-125.439-188.228-125.722-301.386c-0.283-113.161 44.398-221.798 124.214-302.012 79.815-80.218 188.227-125.44 301.385-125.722 24.384-0.414 48.218 7.279 67.755 21.875 19.537 14.592 33.677 35.264 40.192 58.765 4.156 16.969 4.113 34.697-0.124 51.648s-12.544 32.614-24.196 45.632c-2.692 3.063-4.45 6.839-5.065 10.876s-0.055 8.162 1.609 11.891c1.66 3.729 4.356 6.899 7.77 9.143 3.409 2.24 7.394 3.456 11.473 3.503h70.4c66.261-0.311 130.185 24.457 178.935 69.333 48.751 44.873 78.72 106.53 83.891 172.587 1.587 49.254-6.903 98.312-24.951 144.167s-45.274 87.54-80.009 122.499zM682.453 298.62h-70.4c-20.557 0.115-40.713-5.734-58.010-16.845-17.301-11.11-31.006-27.004-39.45-45.747-8.448-18.748-11.273-39.539-8.137-59.857 3.136-20.322 12.105-39.296 25.809-54.618 2.671-2.692 4.557-6.063 5.457-9.745 0.905-3.682 0.785-7.539-0.337-11.162-2.133-8.96-11.947-14.507-25.173-15.36-48.452 0.619-96.222 11.55-140.125 32.068-43.903 20.514-82.935 50.142-114.498 86.912s-54.936 79.842-68.562 126.345c-13.626 46.507-17.194 95.377-10.467 143.369 12.167 80.641 52.461 154.383 113.755 208.181s139.641 84.187 221.177 85.791h3.413c48.252 0.632 96.137-8.406 140.838-26.579s85.308-45.114 119.428-79.235c26.624-26.641 47.543-58.426 61.483-93.416 13.935-34.991 20.599-72.454 19.584-110.103-4.416-43.652-24.806-84.13-57.254-113.664-32.444-29.53-74.658-46.033-118.532-46.336zM516.911 597.285c35.345 0 64 28.654 64 64s-28.655 64-64 64c-35.349 0-64-28.654-64-64s28.651-64 64-64zM630.187 604.301c5.594 11.351 14.43 20.787 25.387 27.117 7.283 4.207 15.326 6.937 23.663 8.035s16.811 0.54 24.934-1.639c8.124-2.179 15.74-5.938 22.409-11.063s12.262-11.512 16.461-18.8c6.319-10.965 9.246-23.557 8.405-36.184-0.836-12.627-5.397-24.723-13.107-34.758s-18.223-17.56-30.208-21.622c-11.985-4.061-24.905-4.479-37.129-1.201-12.22 3.279-23.198 10.108-31.539 19.625s-13.675 21.292-15.326 33.838c-1.651 12.547 0.452 25.302 6.050 36.652zM342.057 639.825c12.627 0.837 25.219-2.088 36.184-8.406 7.287-4.199 13.676-9.793 18.8-16.463s8.883-14.284 11.063-22.407c2.179-8.123 2.736-16.596 1.639-24.935s-3.828-16.379-8.035-23.662c-6.33-10.958-15.767-19.793-27.117-25.39s-24.105-7.701-36.652-6.050c-12.547 1.651-24.323 6.985-33.839 15.328s-16.345 19.318-19.625 31.541c-3.279 12.223-2.861 25.143 1.201 37.129s11.587 22.497 21.622 30.207c10.035 7.71 22.131 12.272 34.758 13.108zM244.293 429.334c4.786 11.725 12.944 21.769 23.441 28.86 6.933 4.749 14.74 8.077 22.967 9.788 8.227 1.715 16.713 1.779 24.966 0.192s16.109-4.796 23.115-9.438c7.005-4.642 13.021-10.628 17.698-17.609 7.119-10.479 10.97-22.831 11.066-35.494 0.095-12.668-3.571-25.075-10.532-35.657s-16.907-18.863-28.576-23.787c-11.669-4.928-24.538-6.281-36.976-3.887s-23.887 8.422-32.897 17.323c-9.010 8.905-15.176 20.279-17.716 32.687-2.541 12.412-1.342 25.293 3.444 37.022z" />
<glyph unicode="&#xe910;" glyph-name="zoom-in" d="M170.682 469.078c0 39.249 7.73 78.112 22.75 114.372s37.033 69.207 64.786 96.959c27.752 27.752 60.698 49.766 96.959 64.786s75.121 22.749 114.371 22.749c39.249 0 78.11-7.73 114.372-22.749 36.258-15.020 69.205-37.034 96.956-64.786 27.755-27.752 49.766-60.699 64.785-96.959 15.023-36.26 22.75-75.123 22.75-114.372 0-79.262-31.484-155.281-87.535-211.328-56.047-56.047-132.066-87.535-211.328-87.535-79.264 0-155.281 31.488-211.329 87.535s-87.536 132.066-87.536 211.328v0zM469.547 853.334c-61.379-0.007-121.864-14.717-176.391-42.9s-101.509-69.018-137.013-119.086c-35.504-50.068-58.498-107.914-67.056-168.694-8.558-60.779-2.431-122.726 17.868-180.651s54.178-110.148 98.803-152.29c44.625-42.142 98.696-72.981 157.687-89.937s121.185-19.533 181.375-7.514c60.194 12.015 116.629 38.276 164.587 76.587l156.907-156.907c8.051-7.778 18.837-12.079 30.029-11.981 11.196 0.094 21.905 4.587 29.82 12.501s12.407 18.624 12.506 29.82c0.094 11.196-4.207 21.978-11.985 30.033l-156.902 156.902c45.171 56.533 73.459 124.676 81.609 196.578 8.154 71.902-4.164 144.646-35.537 209.857-31.369 65.211-80.516 120.239-141.781 158.749s-132.16 58.938-204.523 58.932v0zM512.243 597.164c0 11.323-4.501 22.183-12.506 30.19-8.009 8.007-18.867 12.505-30.191 12.505s-22.182-4.498-30.191-12.505c-8.004-8.007-12.506-18.866-12.506-30.19v-85.39h-85.388c-11.324 0-22.183-4.497-30.19-12.506s-12.505-18.867-12.505-30.191c0-11.324 4.498-22.182 12.505-30.187 8.007-8.009 18.866-12.506 30.19-12.506h85.388v-85.393c0-11.324 4.501-22.182 12.506-30.187 8.009-8.009 18.867-12.506 30.191-12.506s22.182 4.497 30.191 12.506c8.004 8.004 12.506 18.863 12.506 30.187v85.393h85.389c11.324 0 22.182 4.497 30.191 12.506 8.004 8.004 12.506 18.863 12.506 30.187s-4.501 22.182-12.506 30.191c-8.009 8.009-18.867 12.506-30.191 12.506h-85.389v85.39z" />
<glyph unicode="&#xe911;" glyph-name="zoom-out" d="M170.678 469.099c0 39.245 7.73 78.106 22.749 114.364s37.032 69.203 64.783 96.954c27.751 27.751 60.696 49.764 96.954 64.783s75.118 22.749 114.367 22.749c39.245 0 78.106-7.73 114.364-22.749s69.201-37.032 96.951-64.783c27.755-27.751 49.766-60.696 64.785-96.954s22.75-75.119 22.75-114.364c0-79.262-31.488-155.277-87.535-211.319-56.043-56.047-132.058-87.531-211.315-87.531-79.262 0-155.276 31.484-211.321 87.531-56.045 56.043-87.531 132.058-87.531 211.319v0zM469.53 853.334c-61.378-0.007-121.86-14.716-176.384-42.897s-101.504-69.014-137.007-119.080c-35.503-50.066-58.495-107.909-67.053-168.686s-2.431-122.721 17.867-180.641c20.298-57.924 54.176-110.14 98.798-152.282s98.691-72.981 157.679-89.937c58.988-16.951 121.178-19.529 181.367-7.514 60.19 12.019 116.625 38.281 164.578 76.582l156.898-156.894c8.051-7.778 18.833-12.079 30.029-11.985 11.196 0.098 21.901 4.591 29.82 12.506 7.915 7.915 12.403 18.624 12.501 29.815 0.098 11.196-4.207 21.978-11.985 30.033l-156.894 156.894c45.167 56.533 73.455 124.668 81.609 196.57 8.149 71.898-4.169 144.639-35.537 209.846s-80.512 120.233-141.773 158.741c-61.265 38.508-132.156 58.935-204.514 58.929v0zM341.449 511.791c-11.323 0-22.182-4.497-30.188-12.506-8.006-8.004-12.504-18.867-12.504-30.187 0-11.324 4.498-22.182 12.504-30.191 8.006-8.004 18.865-12.501 30.188-12.501h256.157c11.324 0 22.182 4.497 30.187 12.501 8.009 8.009 12.506 18.867 12.506 30.191 0 11.319-4.497 22.182-12.506 30.187-8.004 8.009-18.863 12.506-30.187 12.506h-256.157z" />
<glyph unicode="&#xe912;" glyph-name="link" d="M144.504 312.444c8.81 53.943 38.286 97.899 63.236 122.85l60.34 60.339c8.002 8.004 18.854 12.497 30.17 12.497s22.168-4.493 30.17-12.497c8.002-8 12.497-18.854 12.497-30.17s-4.495-22.165-12.497-30.17l-60.34-60.339c-15.296-15.296-34.062-43.716-39.342-76.271-4.887-29.867 0.905-66.313 39.342-104.747 38.437-38.438 74.882-44.233 104.78-39.373 32.493 5.342 60.975 24.107 76.241 39.373l60.339 60.339c8 8 18.854 12.497 30.17 12.497s22.17-4.497 30.17-12.497c8-8.004 12.497-18.854 12.497-30.17s-4.497-22.17-12.497-30.17l-60.339-60.339c-24.951-24.951-68.911-54.43-122.853-63.236-56.629-9.203-120.74 5.129-178.847 63.236-58.107 58.103-72.438 122.214-63.236 178.846zM449.101 616.314c-8.004 8.002-12.497 18.854-12.497 30.17s4.493 22.168 12.497 30.17l60.339 60.34c24.951 24.951 68.907 54.426 122.85 63.236 56.631 9.202 120.742-5.129 178.846-63.236 58.108-58.107 72.439-122.218 63.236-178.847-8.806-53.942-38.285-97.901-63.236-122.853l-60.339-60.339c-8-8-18.854-12.497-30.17-12.497s-22.165 4.497-30.17 12.497c-8 8-12.497 18.854-12.497 30.17s4.497 22.17 12.497 30.17l60.339 60.339c15.296 15.296 34.065 43.718 39.373 76.241 4.796 29.838-0.934 66.344-39.373 104.78-38.434 38.436-74.91 44.199-104.747 39.341-32.555-5.28-61.005-24.076-76.271-39.341l-60.339-60.34c-8.004-8.001-18.854-12.497-30.17-12.497s-22.17 4.495-30.17 12.497v0zM358.589 284.446c-8.002 8-12.497 18.854-12.497 30.17s4.495 22.17 12.497 30.17l241.359 241.359c8 8.002 18.854 12.497 30.17 12.497s22.17-4.495 30.17-12.497c8-8.001 12.497-18.854 12.497-30.17s-4.497-22.168-12.497-30.17l-241.359-241.359c-8.001-8-18.854-12.497-30.17-12.497s-22.168 4.497-30.17 12.497z" />
<glyph unicode="&#xe913;" glyph-name="arrow-line" d="M419.332 702.758c0 10.443 4.151 20.459 11.536 27.843s17.4 11.534 27.841 11.535h334.19c10.445-0.002 20.46-4.151 27.845-11.535s11.532-17.4 11.536-27.843v-334.191c-0.181-10.323-4.407-20.165-11.776-27.404-7.365-7.239-17.278-11.296-27.605-11.296s-20.24 4.057-27.605 11.296c-7.365 7.239-11.595 17.081-11.772 27.404v239.114l-489.756-489.754c-7.386-7.389-17.404-11.536-27.849-11.536s-20.463 4.147-27.849 11.536c-7.386 7.385-11.535 17.404-11.535 27.849s4.149 20.464 11.535 27.849l489.753 489.754h-239.112c-10.441 0.002-20.456 4.151-27.841 11.535s-11.536 17.4-11.536 27.843z" />
<glyph unicode="&#xe914;" glyph-name="template" d="M152.994 785.673c16.003 16.003 37.708 24.994 60.34 24.994h597.333c22.63 0 44.335-8.99 60.339-24.994s24.994-37.708 24.994-60.34v-85.333c0-22.632-8.99-44.337-24.994-60.34s-37.709-24.994-60.339-24.994h-597.333c-22.632 0-44.337 8.99-60.34 24.994s-24.994 37.708-24.994 60.34v85.333c0 22.632 8.99 44.337 24.994 60.34zM810.667 725.334h-597.333v-85.333h597.333v85.333zM152.994 444.34c16.003 16.004 37.708 24.994 60.34 24.994h256c22.63 0 44.335-8.99 60.339-24.994s24.994-37.709 24.994-60.339v-256c0-22.63-8.99-44.335-24.994-60.339s-37.709-24.994-60.339-24.994h-256c-22.632 0-44.337 8.99-60.34 24.994s-24.994 37.709-24.994 60.339v256c0 22.63 8.99 44.335 24.994 60.339zM469.333 384h-256v-256h256v256zM664.994 444.34c16.004 16.004 37.709 24.994 60.339 24.994h85.333c22.63 0 44.335-8.99 60.339-24.994s24.994-37.709 24.994-60.339v-256c0-22.63-8.99-44.335-24.994-60.339s-37.709-24.994-60.339-24.994h-85.333c-22.63 0-44.335 8.99-60.339 24.994s-24.994 37.709-24.994 60.339v256c0 22.63 8.99 44.335 24.994 60.339zM810.667 384h-85.333v-256h85.333v256z" />
<glyph unicode="&#xe915;" glyph-name="todo" d="M345.618 805.832h0.003c4.694 6.037 11.416 10.114 18.874 11.487-7.459-1.372-14.182-5.449-18.877-11.487zM147.82 723.935c-0.543-0.079-1.085-0.173-1.625-0.28-4.068-0.813-7.936-2.426-11.383-4.748s-6.404-5.304-8.702-8.779c-2.298-3.474-3.893-7.372-4.691-11.468s-0.786-8.311 0.038-12.401c0.823-4.091 2.442-7.978 4.761-11.439s5.295-6.425 8.756-8.725l93.193-62.536c6.059-4.061 13.325-5.841 20.527-5.063-7.203-0.778-14.471 1.001-20.53 5.062l-93.193 62.536c-3.461 2.3-6.436 5.265-8.756 8.725s-3.937 7.347-4.761 11.439c-0.823 4.091-0.836 8.305-0.038 12.401s2.393 7.993 4.691 11.468c2.298 3.474 5.256 6.458 8.702 8.779s7.315 3.935 11.383 4.748c0.541 0.108 1.083 0.201 1.628 0.281zM340.070 810.183l-101.775-128.721-64.46 43.255c-4.211 2.845-8.951 4.834-13.929 5.838-4.982 1.004-10.112 1.009-15.096 0.013s-9.72-2.972-13.939-5.813c-4.218-2.841-7.835-6.49-10.644-10.737s-4.756-9.007-5.731-14.008c-0.975-5.001-0.96-10.147 0.046-15.142s2.982-9.744 5.817-13.973c2.832-4.224 6.465-7.848 10.695-10.661l93.181-62.528c8.016-5.372 17.766-7.498 27.282-5.937 9.498 1.558 18.048 6.668 23.947 14.291l124.202 156.271c4.83 5.945 7.771 13.208 8.446 20.847 0.677 7.653-0.95 15.337-4.674 22.052s-9.375 12.155-16.223 15.603c-6.847 3.447-14.57 4.742-22.162 3.713-9.883-1.322-18.848-6.483-24.983-14.362zM936.085 730.804v-76.637h-448.998v76.637h448.998zM239.783 390.562l105.835 133.858c4.496 5.783 10.853 9.767 17.935 11.299-7.081-1.533-13.437-5.516-17.932-11.299l-105.838-133.858zM148.061 442.484c-0.611-0.085-1.22-0.188-1.827-0.311-8.194-1.651-15.401-6.511-20.035-13.508-4.634-7.002-6.316-15.565-4.677-23.812s6.468-15.501 13.421-20.169l93.193-62.537c5.714-3.827 12.503-5.628 19.299-5.171-6.797-0.461-13.587 1.344-19.302 5.171l-93.193 62.537c-6.953 4.663-11.781 11.921-13.421 20.169s0.043 16.811 4.677 23.812c4.634 6.997 11.841 11.857 20.035 13.508 0.608 0.124 1.219 0.226 1.83 0.311zM275.432 324.647l0.033 0.043 124.171 156.228c4.826 5.943 7.765 13.201 8.442 20.838 0.678 7.646-0.946 15.327-4.665 22.040s-9.363 12.154-16.204 15.605c-6.84 3.451-14.556 4.753-22.145 3.733-9.887-1.32-18.856-6.482-24.993-14.364l-0.017-0.023-101.757-128.696-64.48 43.268c-8.512 5.709-18.936 7.787-28.977 5.764s-18.857-7.974-24.521-16.529c-5.663-8.555-7.715-19.012-5.713-29.082 2.002-10.065 7.899-18.935 16.409-24.644l93.196-62.537c8.016-5.376 17.762-7.497 27.278-5.935 9.497 1.557 18.048 6.665 23.946 14.289zM936.085 372.753h-448.998v76.638h448.998v-76.638zM239.783 109.15l105.835 133.858c4.112 5.286 9.779 9.071 16.134 10.854-6.354-1.783-12.020-5.568-16.131-10.854l-105.838-133.858zM228.133 40.734c5.715-3.827 12.505-5.628 19.302-5.171-6.796-0.457-13.585 1.344-19.299 5.171l-93.193 62.537c-6.953 4.668-11.781 11.921-13.421 20.169s0.042 16.811 4.677 23.812c4.151 6.268 10.366 10.82 17.506 12.89-7.141-2.069-13.357-6.622-17.509-12.89-4.634-7.002-6.316-15.565-4.677-23.812s6.468-15.501 13.421-20.169l93.193-62.537zM114.604 122.061c2.002-10.065 7.898-18.935 16.408-24.644l93.196-62.537c8.016-5.372 17.763-7.497 27.278-5.935 9.497 1.557 18.048 6.665 23.946 14.289l0.033 0.043 124.172 156.228c4.826 5.943 7.764 13.201 8.441 20.838 0.678 7.646-0.946 15.326-4.665 22.042-3.719 6.711-9.363 12.151-16.204 15.603-6.84 3.452-14.556 4.753-22.145 3.733-9.885-1.318-18.853-6.481-24.991-14.362l-0.020-0.026-101.757-128.695-64.48 43.268c-4.214 2.825-8.943 4.791-13.915 5.781s-10.091 0.981-15.062-0.017c-10.040-2.022-18.857-7.974-24.521-16.529-5.663-8.555-7.715-19.012-5.713-29.082zM936.085 91.345h-448.998v76.634h448.998v-76.634zM494.135 723.753h0.004v-62.535h-0.004v62.536zM494.135 442.343h0.004v-62.537h-0.004v62.537zM494.135 160.93h0.004v-62.537h-0.004v62.537zM345.618 805.831c0 0 0 0 0 0zM134.973 666.094c0 0 0 0 0 0l93.191-62.535c0.001 0 0 0 0 0l-93.191 62.535zM337.827 811.93c6.592 8.464 16.224 14.011 26.848 15.433 8.162 1.106 16.463-0.287 23.821-3.991 7.36-3.706 13.431-9.551 17.431-16.765 4-7.212 5.747-15.464 5.020-23.682-0.725-8.198-3.88-15.995-9.063-22.379-0.003-0.004 0.003 0.003 0 0l-124.169-156.229c-0.004-0.005 0.004 0.005 0 0-6.336-8.181-15.532-13.683-25.736-15.357-10.231-1.678-20.711 0.608-29.326 6.381l-93.173 62.523c-0.001 0.001 0.001-0.001 0 0-4.54 3.021-8.443 6.912-11.482 11.445-3.043 4.539-5.164 9.635-6.243 14.995s-1.096 10.881-0.049 16.248c1.046 5.367 3.136 10.476 6.151 15.033s6.898 8.476 11.428 11.527c4.53 3.051 9.617 5.173 14.97 6.243s10.864 1.065 16.216-0.014c5.347-1.078 10.435-3.213 14.956-6.266 0.001-0.001-0.001 0.001 0 0l62.272-41.786 100.13 126.641zM340.052 810.159l-101.756-128.698-64.46 43.255c-4.211 2.845-8.951 4.834-13.929 5.838-4.982 1.004-10.112 1.009-15.096 0.013s-9.721-2.972-13.939-5.813c-4.219-2.841-7.835-6.49-10.644-10.737s-4.756-9.007-5.731-14.008c-0.975-5.001-0.959-10.147 0.047-15.142s2.982-9.744 5.816-13.973c2.832-4.224 6.466-7.847 10.695-10.661l93.182-62.528c8.016-5.373 17.766-7.498 27.281-5.937 9.498 1.558 18.049 6.668 23.947 14.291l124.202 156.271c4.83 5.945 7.77 13.208 8.446 20.847 0.677 7.654-0.95 15.337-4.674 22.052s-9.375 12.155-16.223 15.603c-6.847 3.447-14.57 4.742-22.162 3.713-9.883-1.322-18.848-6.483-24.983-14.362l-0.018-0.023zM484.241 733.648v-82.326h454.69v82.326h-454.69zM345.62 524.418c0 0 0 0.001 0 0zM146.231 442.172c-8.193-1.651-15.399-6.515-20.033-13.513 0 0 0 0 0 0-4.634-6.997-6.315-15.565-4.675-23.808 1.64-8.247 6.469-15.505 13.421-20.169-0.001 0 0 0 0 0l93.191-62.537zM146.231 442.172c-8.193-1.651-15.399-6.515-20.033-13.513 0 0 0 0 0 0-4.634-6.997-6.315-15.565-4.675-23.808 1.64-8.247 6.469-15.505 13.421-20.169l93.191-62.537c0.001 0 0 0.004 0 0zM399.636 480.918c4.826 5.943 7.765 13.201 8.441 20.834 0.678 7.65-0.946 15.331-4.665 22.044s-9.362 12.153-16.204 15.605c-6.84 3.451-14.557 4.753-22.145 3.733-9.887-1.32-18.856-6.482-24.994-14.364l-101.774-128.722-64.481 43.273c-8.512 5.709-18.936 7.787-28.977 5.764-10.040-2.027-18.857-7.974-24.521-16.529s-7.715-19.012-5.713-29.082c2.002-10.069 7.898-18.935 16.408-24.644l93.196-62.541c8.016-5.372 17.763-7.492 27.279-5.935 9.497 1.557 18.047 6.669 23.946 14.289l124.204 156.275zM364.687 545.953c8.157 1.096 16.452-0.304 23.803-4.013 7.353-3.71 13.417-9.555 17.411-16.766s5.737-15.456 5.010-23.669c-0.726-8.201-3.882-15.996-9.067-22.379l-0.028-0.038-124.123-156.169c-6.336-8.188-15.535-13.696-25.745-15.369-10.23-1.681-20.707 0.602-29.322 6.379l-93.197 62.537c0 0 0 0 0 0-9.137 6.131-15.465 15.65-17.614 26.453s0.053 22.025 6.131 31.206c6.080 9.182 15.546 15.573 26.331 17.745s21.983-0.060 31.123-6.191l62.297-41.801 100.128 126.638c6.594 8.467 16.233 14.017 26.862 15.436zM938.931 452.237h-454.69v-82.325h454.69v82.325zM345.62 243.008c0-0.004 0 0 0 0zM134.942 103.271c-0.001 0.004 0 0 0 0l93.192-62.537c0 0-0.001 0 0 0l-93.192 62.537zM222.623 32.517c8.615-5.773 19.094-8.060 29.324-6.379 10.21 1.673 19.409 7.181 25.745 15.369l124.152 156.207c5.184 6.383 8.34 14.178 9.066 22.379 0.727 8.213-1.016 16.461-5.010 23.671s-10.058 13.056-17.411 16.764c-7.351 3.708-15.645 5.111-23.803 4.015-10.628-1.421-20.265-6.967-26.859-15.433l-100.132-126.643-62.297 41.801-1.585-2.359 64.481-43.268 101.776 128.721c6.138 7.881 15.105 13.043 24.991 14.362 7.589 1.020 15.305-0.282 22.145-3.733 6.842-3.452 12.485-8.892 16.204-15.603 3.718-6.716 5.342-14.396 4.665-22.046-0.676-7.633-3.615-14.891-8.44-20.834l-124.205-156.271c-5.899-7.625-14.449-12.732-23.946-14.289-9.516-1.562-19.262 0.559-27.279 5.935l-93.196 62.537c-8.509 5.709-14.406 14.579-16.407 24.644-2.002 10.069 0.050 20.527 5.713 29.082s14.481 14.507 24.521 16.529c4.971 0.998 10.089 1.007 15.062 0.017s9.701-2.957 13.915-5.781l1.585 2.359c-4.525 3.038-9.603 5.15-14.944 6.212s-10.84 1.054-16.179-0.021c-10.785-2.172-20.252-8.563-26.331-17.745-6.078-9.182-8.279-20.403-6.131-31.206s8.475-20.322 17.613-26.453l93.196-62.537zM938.931 170.825h-454.69v-82.325h454.69v82.325zM936.085 730.803v-76.637h-448.998v76.637h448.998zM936.085 372.753h-448.998v76.638h448.998v-76.638zM936.085 91.341h-448.998v76.638h448.998v-76.638z" />
<glyph unicode="&#xe916;" glyph-name="add" d="M512 42.667c-75.947 0-150.191 22.519-213.339 64.717-63.148 42.193-112.367 102.165-141.431 172.331-29.064 70.17-36.669 147.379-21.852 221.867 14.816 74.489 51.389 142.911 105.092 196.615s122.126 90.276 196.615 105.092c74.487 14.817 151.697 7.212 221.867-21.852 70.165-29.064 130.138-78.282 172.331-141.431 42.197-63.148 64.717-137.392 64.717-213.339 0-101.845-40.457-199.514-112.469-271.531-72.017-72.013-169.685-112.469-271.531-112.469zM251.252 36.429c77.181-51.571 167.922-79.095 260.748-79.095 124.476 0 243.853 49.446 331.87 137.463s137.463 207.394 137.463 331.87c0 92.825-27.524 183.566-79.095 260.748s-124.873 137.337-210.633 172.86c-85.76 35.523-180.126 44.817-271.168 26.708s-174.669-62.809-240.306-128.446c-65.638-65.638-110.337-149.265-128.446-240.306s-8.815-185.408 26.708-271.168c35.523-85.76 95.678-159.061 172.86-210.633zM711.113 426.667c0 21.995-17.83 39.825-39.821 39.825h-91.025c-15.706 0-28.442 12.732-28.442 28.442v91.023c0 21.993-17.83 39.823-39.825 39.823v0c-21.99 0-39.821-17.829-39.821-39.823v-91.023c0-15.71-12.736-28.442-28.446-28.442h-91.020c-21.993 0-39.823-17.83-39.823-39.825v0c0-21.99 17.829-39.821 39.823-39.821h91.020c15.71 0 28.446-12.736 28.446-28.446v-91.021c0-21.995 17.83-39.821 39.821-39.821v0c21.995 0 39.825 17.826 39.825 39.821v91.021c0 15.71 12.736 28.446 28.442 28.446h91.025c21.99 0 39.821 17.83 39.821 39.821v0z" />
<glyph unicode="&#xe917;" glyph-name="search" d="M472.179 762.312c-163.38 0-295.824-132.444-295.824-295.82 0-163.379 132.444-295.825 295.824-295.825 163.375 0 295.821 132.446 295.821 295.825 0 163.376-132.446 295.82-295.821 295.82zM85.333 466.492c0 213.647 173.196 386.842 386.846 386.842 213.645 0 386.842-173.196 386.842-386.842 0-213.649-173.197-386.846-386.842-386.846-213.65 0-386.846 173.197-386.846 386.846zM681.058 257.605c17.775 17.775 46.592 17.775 64.363 0l185.6-185.6c17.775-17.771 17.775-46.588 0-64.363-17.771-17.771-46.588-17.771-64.363 0l-185.6 185.6c-17.771 17.775-17.771 46.592 0 64.363z" />
<glyph unicode="&#xe918;" glyph-name="window" d="M192 801.565c-29.648 0-58.081-11.777-79.045-32.742s-32.742-49.397-32.742-79.045v-511.999c0-29.649 11.778-58.082 32.742-79.044 20.964-20.966 49.397-32.742 79.045-32.742h640c29.649 0 58.082 11.776 79.044 32.742 20.966 20.962 32.742 49.395 32.742 79.044v511.999c0 29.648-11.776 58.081-32.742 79.045-20.962 20.964-49.395 32.742-79.044 32.742h-640zM170.479 711.3c5.708 5.708 13.449 8.915 21.521 8.915h640c8.073 0 15.812-3.207 21.521-8.915s8.913-13.449 8.913-21.521v-101.547h-700.87v101.547c0 8.072 3.207 15.814 8.914 21.521zM833.762 725.291c-0.585 0.029-1.173 0.044-1.762 0.044h-640.002c-9.43 0-18.474-3.746-25.142-10.414s-10.414-15.712-10.414-25.141v-106.667h0.002v106.666c0 9.43 3.746 18.474 10.414 25.142s15.712 10.414 25.142 10.414h640c0.589 0 1.178-0.015 1.762-0.044zM161.565 177.78v329.101h700.87v-329.101c0-8.073-3.204-15.812-8.913-21.521s-13.449-8.917-21.521-8.917h-640c-8.072 0-15.814 3.209-21.521 8.917s-8.914 13.449-8.914 21.521zM872.819 788.326c12.821-5.31 24.602-13.121 34.603-23.122 20.006-20.004 31.245-47.135 31.245-75.424v-512c0-28.292-11.238-55.42-31.245-75.426-15.706-15.706-35.81-26.010-57.417-29.713 21.606 3.703 41.711 14.003 57.421 29.713 20.002 20.006 31.241 47.134 31.241 75.426v511.999c0 28.29-11.238 55.421-31.241 75.425-10.001 10.002-21.786 17.812-34.607 23.122zM832 71.113c0 0 0 0 0 0h-640.002c0 0 0 0 0 0s0.002 0 0.003 0h640zM166.859 152.636c-6.668 6.669-10.414 15.714-10.414 25.143v334.222h-0.002v-334.222c0-9.429 3.746-18.475 10.414-25.143 4.105-4.105 9.111-7.1 14.552-8.798-5.441 1.698-10.446 4.693-14.55 8.798z" />
</font>
</defs>
</svg>
